<?xml version="1.0" encoding="UTF-8"?>
<svg xmlns="http://www.w3.org/2000/svg" xmlns:xlink="http://www.w3.org/1999/xlink" width="50px" height="50px" viewBox="0 0 50 50" version="1.1">
<g id="surface1">
<path style=" stroke:none;fill-rule:nonzero;fill:rgb(2.352941%,41.176471%,67.450982%);fill-opacity:1;" d="M 20.597656 9.953125 C 20.914062 9.953125 21.230469 9.953125 21.546875 9.953125 C 22.113281 9.953125 22.679688 9.953125 23.25 9.953125 C 23.753906 9.953125 24.261719 9.953125 24.769531 9.953125 C 29.90625 9.953125 29.90625 9.953125 31.820312 9.976562 C 31.917969 9.976562 32.015625 9.976562 32.113281 9.976562 C 32.800781 9.984375 33.464844 10.023438 34.144531 10.125 C 34.289062 10.148438 34.417969 10.15625 34.566406 10.15625 C 34.71875 10.15625 34.71875 10.15625 34.863281 10.253906 C 34.941406 10.28125 35.019531 10.304688 35.097656 10.328125 C 35.140625 10.339844 35.1875 10.351562 35.234375 10.367188 C 35.28125 10.378906 35.328125 10.394531 35.375 10.40625 C 35.421875 10.421875 35.46875 10.433594 35.519531 10.449219 C 35.773438 10.523438 35.773438 10.523438 36.035156 10.546875 C 36.035156 10.578125 36.035156 10.613281 36.035156 10.644531 C 36.0625 10.652344 36.089844 10.660156 36.117188 10.667969 C 37.089844 10.976562 38.019531 11.609375 38.722656 12.355469 C 38.722656 12.386719 38.722656 12.417969 38.722656 12.453125 C 38.769531 12.46875 38.816406 12.484375 38.867188 12.5 C 38.957031 12.597656 39.035156 12.695312 39.117188 12.800781 C 39.140625 12.828125 39.164062 12.859375 39.1875 12.890625 C 39.878906 13.800781 40.347656 14.851562 40.578125 15.96875 C 40.585938 16.007812 40.59375 16.050781 40.605469 16.09375 C 40.792969 17.140625 40.777344 18.210938 40.777344 19.269531 C 40.777344 19.441406 40.777344 19.613281 40.777344 19.789062 C 40.78125 20.125 40.78125 20.460938 40.78125 20.796875 C 40.78125 21.074219 40.78125 21.347656 40.78125 21.621094 C 40.78125 22.402344 40.78125 23.183594 40.78125 23.960938 C 40.78125 24.023438 40.78125 24.023438 40.78125 24.089844 C 40.78125 24.152344 40.78125 24.152344 40.78125 24.214844 C 40.78125 24.894531 40.78125 25.578125 40.78125 26.257812 C 40.78125 26.957031 40.78125 27.65625 40.78125 28.359375 C 40.78125 28.75 40.78125 29.144531 40.785156 29.535156 C 40.785156 29.871094 40.785156 30.203125 40.785156 30.539062 C 40.785156 30.707031 40.785156 30.878906 40.785156 31.046875 C 40.789062 33.1875 40.554688 35.378906 39.160156 37.109375 C 39.128906 37.148438 39.101562 37.1875 39.070312 37.230469 C 37.824219 38.855469 35.949219 39.691406 33.960938 39.960938 C 33.398438 40.027344 32.835938 40.046875 32.269531 40.046875 C 32.203125 40.046875 32.136719 40.046875 32.070312 40.046875 C 31.890625 40.046875 31.710938 40.046875 31.53125 40.046875 C 31.335938 40.046875 31.140625 40.046875 30.949219 40.046875 C 30.566406 40.046875 30.1875 40.046875 29.804688 40.046875 C 29.496094 40.046875 29.1875 40.046875 28.878906 40.046875 C 28 40.046875 27.121094 40.046875 26.238281 40.046875 C 26.191406 40.046875 26.144531 40.046875 26.097656 40.046875 C 26.050781 40.046875 26 40.046875 25.953125 40.046875 C 25.1875 40.046875 24.417969 40.046875 23.652344 40.050781 C 22.863281 40.050781 22.074219 40.050781 21.28125 40.050781 C 20.839844 40.050781 20.398438 40.050781 19.957031 40.050781 C 19.578125 40.050781 19.203125 40.050781 18.824219 40.050781 C 18.632812 40.050781 18.441406 40.050781 18.25 40.050781 C 16.082031 40.054688 13.671875 39.839844 11.964844 38.332031 C 11.964844 38.296875 11.964844 38.265625 11.964844 38.234375 C 11.917969 38.210938 11.917969 38.210938 11.875 38.191406 C 11.550781 38.019531 11.3125 37.730469 11.085938 37.453125 C 11.027344 37.382812 11.027344 37.382812 10.972656 37.3125 C 9.816406 35.882812 9.308594 34.136719 9.25 32.316406 C 9.246094 32.253906 9.246094 32.191406 9.242188 32.125 C 9.21875 31.246094 9.226562 30.371094 9.230469 29.492188 C 9.230469 29.25 9.230469 29.007812 9.230469 28.765625 C 9.230469 28.65625 9.230469 28.546875 9.234375 28.4375 C 9.234375 28.039062 9.226562 27.640625 9.210938 27.246094 C 9.175781 26.328125 9.175781 25.414062 9.179688 24.5 C 9.183594 24.320312 9.183594 24.144531 9.183594 23.96875 C 9.1875 23.546875 9.1875 23.128906 9.191406 22.707031 C 9.195312 22.28125 9.195312 21.851562 9.199219 21.421875 C 9.199219 21.050781 9.203125 20.679688 9.203125 20.308594 C 9.207031 20.085938 9.207031 19.867188 9.207031 19.644531 C 9.222656 15.617188 9.222656 15.617188 10.207031 13.867188 C 10.230469 13.816406 10.257812 13.765625 10.285156 13.714844 C 11.234375 11.996094 12.945312 10.871094 14.792969 10.328125 C 15.609375 10.101562 16.4375 10.007812 17.28125 9.980469 C 17.34375 9.980469 17.410156 9.976562 17.476562 9.976562 C 18.515625 9.945312 19.554688 9.953125 20.597656 9.953125 Z M 15.136719 17.921875 C 14.261719 18.933594 13.980469 20.214844 14.074219 21.527344 C 14.183594 22.652344 14.667969 23.664062 15.527344 24.414062 C 16.105469 24.847656 16.792969 25.125 17.460938 25.386719 C 17.523438 25.414062 17.589844 25.4375 17.652344 25.464844 C 18.011719 25.605469 18.375 25.746094 18.734375 25.882812 C 18.902344 25.945312 19.070312 26.011719 19.238281 26.074219 C 19.320312 26.105469 19.320312 26.105469 19.402344 26.136719 C 19.578125 26.203125 19.753906 26.273438 19.929688 26.34375 C 19.980469 26.363281 20.035156 26.382812 20.09375 26.40625 C 20.625 26.617188 21.136719 26.902344 21.386719 27.441406 C 21.582031 27.960938 21.578125 28.476562 21.351562 28.988281 C 21.042969 29.539062 20.554688 29.753906 19.972656 29.933594 C 19.839844 29.964844 19.714844 29.976562 19.582031 29.980469 C 19.5 29.984375 19.5 29.984375 19.421875 29.988281 C 18.75 30.011719 18.132812 29.890625 17.578125 29.492188 C 17.535156 29.464844 17.488281 29.433594 17.445312 29.402344 C 16.9375 28.910156 16.894531 28.378906 16.847656 27.6875 C 15.796875 27.6875 14.75 27.6875 13.671875 27.6875 C 13.671875 28.210938 13.671875 28.210938 13.730469 28.726562 C 13.738281 28.785156 13.738281 28.785156 13.75 28.847656 C 13.941406 29.929688 14.507812 30.917969 15.40625 31.578125 C 15.460938 31.617188 15.519531 31.652344 15.578125 31.691406 C 15.609375 31.710938 15.644531 31.734375 15.679688 31.757812 C 16.222656 32.105469 17.066406 32.503906 17.726562 32.472656 C 17.726562 32.488281 17.726562 32.503906 17.726562 32.519531 C 18.273438 32.609375 18.808594 32.636719 19.367188 32.636719 C 19.40625 32.636719 19.449219 32.636719 19.488281 32.636719 C 20.121094 32.632812 20.726562 32.601562 21.339844 32.421875 C 21.386719 32.40625 21.386719 32.40625 21.4375 32.394531 C 22.582031 32.046875 23.542969 31.375 24.121094 30.324219 C 24.78125 29.085938 24.789062 27.5625 24.402344 26.238281 C 24.144531 25.4375 23.566406 24.75 22.867188 24.296875 C 22.835938 24.273438 22.808594 24.253906 22.777344 24.230469 C 22.03125 23.746094 21.089844 23.5 20.265625 23.195312 C 19.691406 22.980469 19.121094 22.769531 18.554688 22.546875 C 18.515625 22.53125 18.476562 22.515625 18.4375 22.5 C 17.964844 22.3125 17.558594 22.066406 17.316406 21.605469 C 17.140625 21.171875 17.113281 20.710938 17.285156 20.269531 C 17.539062 19.734375 17.894531 19.484375 18.445312 19.277344 C 18.734375 19.175781 19.007812 19.179688 19.316406 19.179688 C 19.390625 19.179688 19.390625 19.179688 19.46875 19.179688 C 19.519531 19.179688 19.570312 19.179688 19.621094 19.179688 C 19.664062 19.179688 19.710938 19.179688 19.757812 19.175781 C 19.875 19.191406 19.875 19.191406 20.019531 19.289062 C 20.09375 19.316406 20.171875 19.34375 20.25 19.371094 C 20.683594 19.542969 21.050781 19.835938 21.261719 20.261719 C 21.359375 20.488281 21.4375 20.703125 21.484375 20.949219 C 21.851562 20.949219 22.222656 20.949219 22.589844 20.949219 C 22.761719 20.949219 22.933594 20.949219 23.101562 20.949219 C 23.300781 20.953125 23.496094 20.953125 23.691406 20.953125 C 23.785156 20.953125 23.785156 20.953125 23.878906 20.953125 C 23.9375 20.953125 23.992188 20.953125 24.050781 20.953125 C 24.101562 20.953125 24.152344 20.953125 24.203125 20.953125 C 24.316406 20.960938 24.316406 20.960938 24.367188 20.898438 C 24.371094 19.714844 24.046875 18.660156 23.242188 17.773438 C 22.660156 17.214844 22 16.921875 21.242188 16.699219 C 21.1875 16.683594 21.136719 16.667969 21.082031 16.652344 C 20.5625 16.515625 20.019531 16.488281 19.484375 16.457031 C 19.398438 16.449219 19.398438 16.449219 19.308594 16.445312 C 17.820312 16.398438 16.199219 16.832031 15.136719 17.921875 Z M 25.832031 16.699219 C 25.832031 21.871094 25.832031 27.042969 25.832031 32.375 C 26.261719 32.402344 26.679688 32.429688 27.109375 32.429688 C 27.160156 32.429688 27.207031 32.429688 27.257812 32.429688 C 27.417969 32.429688 27.582031 32.429688 27.742188 32.429688 C 27.855469 32.429688 27.96875 32.429688 28.082031 32.429688 C 28.320312 32.429688 28.554688 32.429688 28.792969 32.429688 C 29.09375 32.429688 29.394531 32.429688 29.695312 32.433594 C 29.933594 32.433594 30.167969 32.433594 30.402344 32.433594 C 30.511719 32.433594 30.621094 32.433594 30.734375 32.433594 C 31.273438 32.433594 31.808594 32.429688 32.34375 32.378906 C 32.386719 32.375 32.425781 32.371094 32.464844 32.367188 C 33.488281 32.261719 34.523438 31.875 35.304688 31.203125 C 35.339844 31.171875 35.375 31.140625 35.414062 31.109375 C 36.195312 30.386719 36.59375 29.25 36.636719 28.207031 C 36.664062 27.121094 36.527344 26.121094 35.839844 25.246094 C 35.8125 25.210938 35.789062 25.175781 35.761719 25.140625 C 35.394531 24.699219 34.976562 24.398438 34.449219 24.179688 C 34.328125 24.121094 34.328125 24.121094 34.277344 24.023438 C 34.316406 24.015625 34.355469 24.003906 34.394531 23.996094 C 34.636719 23.898438 34.8125 23.753906 35.011719 23.585938 C 35.058594 23.542969 35.058594 23.542969 35.109375 23.5 C 35.746094 22.917969 36.078125 21.988281 36.144531 21.148438 C 36.195312 19.90625 35.972656 18.832031 35.109375 17.890625 C 34.566406 17.378906 33.917969 17.078125 33.203125 16.894531 C 33.171875 16.886719 33.136719 16.878906 33.105469 16.871094 C 31.796875 16.554688 30.316406 16.691406 28.980469 16.699219 C 27.929688 16.703125 26.878906 16.699219 25.832031 16.699219 Z M 25.832031 16.699219 "/>
<path style=" stroke:none;fill-rule:nonzero;fill:rgb(2.745098%,40.784314%,67.058825%);fill-opacity:1;" d="M 28.953125 25.632812 C 29.332031 25.628906 29.707031 25.625 30.082031 25.625 C 30.207031 25.625 30.335938 25.621094 30.460938 25.621094 C 32.449219 25.59375 32.449219 25.59375 33.195312 26.285156 C 33.589844 26.714844 33.769531 27.253906 33.753906 27.832031 C 33.714844 28.238281 33.59375 28.574219 33.351562 28.90625 C 33.3125 28.957031 33.277344 29.007812 33.242188 29.058594 C 32.890625 29.464844 32.304688 29.664062 31.789062 29.734375 C 31.5625 29.75 31.335938 29.746094 31.109375 29.746094 C 31.046875 29.746094 30.984375 29.746094 30.917969 29.746094 C 30.75 29.746094 30.585938 29.742188 30.417969 29.742188 C 30.246094 29.742188 30.078125 29.742188 29.90625 29.742188 C 29.574219 29.738281 29.238281 29.738281 28.90625 29.734375 C 28.90625 29.28125 28.902344 28.824219 28.902344 28.371094 C 28.902344 28.160156 28.902344 27.945312 28.902344 27.734375 C 28.902344 27.53125 28.902344 27.328125 28.902344 27.121094 C 28.902344 27.042969 28.902344 26.964844 28.902344 26.890625 C 28.898438 26.46875 28.90625 26.054688 28.953125 25.632812 Z M 28.953125 25.632812 "/>
<path style=" stroke:none;fill-rule:nonzero;fill:rgb(2.352941%,41.176471%,67.450982%);fill-opacity:1;" d="M 29.164062 19.230469 C 29.207031 19.230469 29.253906 19.230469 29.296875 19.230469 C 29.347656 19.230469 29.394531 19.230469 29.445312 19.226562 C 29.496094 19.226562 29.546875 19.226562 29.597656 19.226562 C 29.703125 19.226562 29.808594 19.226562 29.917969 19.226562 C 30.078125 19.226562 30.238281 19.222656 30.398438 19.222656 C 31.242188 19.21875 32.035156 19.214844 32.703125 19.792969 C 32.738281 19.835938 32.773438 19.878906 32.8125 19.921875 C 32.847656 19.964844 32.847656 19.964844 32.886719 20.007812 C 33.242188 20.445312 33.300781 20.878906 33.253906 21.433594 C 33.171875 21.953125 32.921875 22.332031 32.519531 22.65625 C 31.984375 23.011719 31.386719 23.121094 30.757812 23.109375 C 30.703125 23.109375 30.648438 23.109375 30.59375 23.109375 C 30.425781 23.109375 30.257812 23.105469 30.089844 23.105469 C 29.976562 23.105469 29.859375 23.101562 29.746094 23.101562 C 29.464844 23.101562 29.1875 23.097656 28.90625 23.09375 C 28.90625 22.601562 28.902344 22.105469 28.902344 21.609375 C 28.902344 21.378906 28.902344 21.148438 28.902344 20.917969 C 28.902344 20.695312 28.902344 20.472656 28.902344 20.253906 C 28.902344 20.167969 28.902344 20.082031 28.902344 19.996094 C 28.902344 19.878906 28.902344 19.761719 28.902344 19.640625 C 28.902344 19.605469 28.898438 19.570312 28.898438 19.535156 C 28.902344 19.234375 28.902344 19.234375 29.164062 19.230469 Z M 29.164062 19.230469 "/>
<path style=" stroke:none;fill-rule:nonzero;fill:rgb(7.450981%,36.862746%,58.039218%);fill-opacity:1;" d="M 40.578125 16.601562 C 40.953125 17.328125 40.777344 18.476562 40.777344 19.269531 C 40.777344 19.441406 40.777344 19.613281 40.777344 19.789062 C 40.78125 20.125 40.78125 20.460938 40.78125 20.796875 C 40.78125 21.074219 40.78125 21.347656 40.78125 21.621094 C 40.78125 22.402344 40.78125 23.183594 40.78125 23.960938 C 40.78125 24.003906 40.78125 24.046875 40.78125 24.089844 C 40.78125 24.132812 40.78125 24.171875 40.78125 24.214844 C 40.78125 24.894531 40.78125 25.578125 40.78125 26.257812 C 40.78125 26.957031 40.78125 27.65625 40.78125 28.359375 C 40.78125 28.75 40.78125 29.144531 40.785156 29.535156 C 40.785156 29.871094 40.785156 30.203125 40.785156 30.539062 C 40.785156 30.707031 40.785156 30.878906 40.785156 31.046875 C 40.785156 32.464844 40.695312 33.808594 40.234375 35.15625 C 40.203125 35.15625 40.171875 35.15625 40.136719 35.15625 C 40.1875 34.871094 40.253906 34.589844 40.332031 34.3125 C 40.625 33.242188 40.582031 32.132812 40.582031 31.03125 C 40.582031 30.839844 40.582031 30.644531 40.582031 30.449219 C 40.582031 30.113281 40.582031 29.78125 40.582031 29.445312 C 40.582031 28.960938 40.582031 28.472656 40.582031 27.988281 C 40.582031 27.203125 40.582031 26.414062 40.578125 25.628906 C 40.578125 24.863281 40.578125 24.101562 40.578125 23.335938 C 40.578125 23.289062 40.578125 23.242188 40.578125 23.191406 C 40.578125 22.957031 40.578125 22.71875 40.578125 22.484375 C 40.578125 20.523438 40.578125 18.5625 40.578125 16.601562 Z M 40.578125 16.601562 "/>
<path style=" stroke:none;fill-rule:nonzero;fill:rgb(7.843138%,35.294119%,56.862748%);fill-opacity:1;" d="M 15.578125 39.796875 C 15.628906 39.796875 15.679688 39.800781 15.730469 39.804688 C 16.207031 39.835938 16.679688 39.851562 17.160156 39.851562 C 17.230469 39.851562 17.300781 39.851562 17.375 39.851562 C 17.566406 39.851562 17.761719 39.851562 17.957031 39.855469 C 18.164062 39.855469 18.375 39.855469 18.585938 39.855469 C 18.949219 39.855469 19.3125 39.855469 19.675781 39.859375 C 20.203125 39.859375 20.726562 39.859375 21.253906 39.863281 C 22.105469 39.863281 22.960938 39.867188 23.8125 39.867188 C 24.640625 39.871094 25.46875 39.871094 26.296875 39.875 C 26.371094 39.875 26.371094 39.875 26.449219 39.875 C 26.707031 39.875 26.964844 39.875 27.21875 39.875 C 29.34375 39.882812 31.46875 39.886719 33.59375 39.890625 C 33.59375 39.910156 33.59375 39.925781 33.59375 39.941406 C 33.152344 40.023438 32.726562 40.054688 32.28125 40.050781 C 32.214844 40.050781 32.148438 40.050781 32.082031 40.050781 C 31.902344 40.050781 31.722656 40.050781 31.542969 40.050781 C 31.347656 40.050781 31.152344 40.050781 30.957031 40.050781 C 30.578125 40.050781 30.195312 40.050781 29.816406 40.050781 C 29.507812 40.050781 29.195312 40.050781 28.886719 40.050781 C 28.820312 40.050781 28.820312 40.050781 28.753906 40.050781 C 28.664062 40.050781 28.574219 40.050781 28.484375 40.050781 C 27.644531 40.050781 26.800781 40.050781 25.960938 40.050781 C 25.242188 40.050781 24.519531 40.050781 23.800781 40.050781 C 22.960938 40.050781 22.125 40.050781 21.285156 40.050781 C 21.199219 40.050781 21.109375 40.050781 21.019531 40.050781 C 20.972656 40.050781 20.929688 40.050781 20.882812 40.050781 C 20.574219 40.050781 20.265625 40.050781 19.957031 40.050781 C 19.582031 40.050781 19.203125 40.050781 18.828125 40.050781 C 18.636719 40.050781 18.441406 40.050781 18.25 40.050781 C 16.132812 40.054688 16.132812 40.054688 15.578125 39.84375 C 15.578125 39.828125 15.578125 39.8125 15.578125 39.796875 Z M 15.578125 39.796875 "/>
<path style=" stroke:none;fill-rule:nonzero;fill:rgb(11.764706%,41.176471%,60.392159%);fill-opacity:1;" d="M 9.277344 17.140625 C 9.292969 17.140625 9.308594 17.140625 9.328125 17.140625 C 9.34375 22.3125 9.359375 27.484375 9.375 32.8125 C 9.390625 32.8125 9.40625 32.8125 9.421875 32.8125 C 9.425781 32.867188 9.425781 32.867188 9.429688 32.917969 C 9.457031 33.292969 9.519531 33.648438 9.601562 34.011719 C 9.625 34.113281 9.648438 34.21875 9.667969 34.320312 C 9.683594 34.386719 9.683594 34.386719 9.699219 34.457031 C 9.71875 34.570312 9.71875 34.570312 9.667969 34.71875 C 9.539062 34.445312 9.472656 34.1875 9.417969 33.894531 C 9.410156 33.851562 9.402344 33.808594 9.394531 33.765625 C 9.300781 33.285156 9.265625 32.808594 9.25 32.316406 C 9.246094 32.253906 9.246094 32.191406 9.242188 32.125 C 9.21875 31.246094 9.226562 30.371094 9.230469 29.492188 C 9.230469 29.25 9.230469 29.007812 9.230469 28.765625 C 9.230469 28.65625 9.230469 28.546875 9.234375 28.4375 C 9.234375 28.039062 9.226562 27.644531 9.210938 27.246094 C 9.175781 26.324219 9.175781 25.40625 9.183594 24.484375 C 9.183594 24.257812 9.1875 24.035156 9.1875 23.808594 C 9.1875 23.433594 9.191406 23.058594 9.195312 22.683594 C 9.195312 22.25 9.199219 21.816406 9.203125 21.386719 C 9.203125 20.964844 9.207031 20.546875 9.210938 20.125 C 9.210938 19.949219 9.210938 19.769531 9.210938 19.59375 C 9.214844 19.386719 9.214844 19.175781 9.21875 18.96875 C 9.21875 18.890625 9.21875 18.816406 9.21875 18.742188 C 9.222656 18.207031 9.242188 17.671875 9.277344 17.140625 Z M 9.277344 17.140625 "/>
<path style=" stroke:none;fill-rule:nonzero;fill:rgb(9.411765%,43.137255%,65.490198%);fill-opacity:1;" d="M 25.78125 16.699219 C 25.796875 16.699219 25.8125 16.699219 25.828125 16.699219 C 25.882812 26.589844 25.882812 26.589844 25.886719 29.882812 C 25.886719 30.058594 25.886719 30.230469 25.886719 30.40625 C 25.886719 30.671875 25.886719 30.9375 25.886719 31.203125 C 25.886719 31.296875 25.886719 31.390625 25.886719 31.484375 C 25.886719 31.609375 25.886719 31.734375 25.886719 31.855469 C 25.886719 31.894531 25.886719 31.929688 25.886719 31.964844 C 25.886719 32.117188 25.878906 32.230469 25.828125 32.375 C 26.183594 32.375 26.539062 32.375 26.90625 32.375 C 26.886719 32.40625 26.871094 32.4375 26.855469 32.46875 C 26.746094 32.472656 26.636719 32.472656 26.527344 32.472656 C 26.46875 32.472656 26.40625 32.476562 26.34375 32.476562 C 26.199219 32.472656 26.070312 32.457031 25.929688 32.421875 C 25.929688 32.453125 25.929688 32.484375 25.929688 32.519531 C 25.863281 32.503906 25.796875 32.488281 25.734375 32.46875 C 25.75 27.265625 25.765625 22.0625 25.78125 16.699219 Z M 25.78125 16.699219 "/>
<path style=" stroke:none;fill-rule:nonzero;fill:rgb(5.098039%,33.725491%,56.470591%);fill-opacity:1;" d="M 29.050781 19.230469 C 29.089844 19.234375 29.132812 19.234375 29.175781 19.234375 C 29.246094 19.234375 29.246094 19.234375 29.316406 19.234375 C 29.394531 19.234375 29.394531 19.234375 29.472656 19.234375 C 29.523438 19.234375 29.578125 19.234375 29.628906 19.234375 C 29.796875 19.234375 29.964844 19.234375 30.128906 19.234375 C 30.242188 19.234375 30.355469 19.234375 30.46875 19.234375 C 30.746094 19.238281 31.023438 19.238281 31.296875 19.238281 C 31.324219 19.3125 31.324219 19.3125 31.347656 19.386719 C 30.589844 19.386719 29.832031 19.386719 29.050781 19.386719 C 29.050781 20.578125 29.050781 21.769531 29.050781 23 C 29.890625 22.980469 30.726562 22.964844 31.589844 22.949219 C 31.589844 22.980469 31.589844 23.015625 31.589844 23.046875 C 31.421875 23.085938 31.269531 23.101562 31.097656 23.101562 C 31.046875 23.101562 31 23.101562 30.949219 23.101562 C 30.894531 23.101562 30.84375 23.101562 30.789062 23.101562 C 30.734375 23.101562 30.683594 23.101562 30.625 23.101562 C 30.453125 23.101562 30.285156 23.097656 30.113281 23.097656 C 29.996094 23.097656 29.878906 23.097656 29.761719 23.097656 C 29.476562 23.097656 29.191406 23.097656 28.90625 23.097656 C 28.90625 22.601562 28.902344 22.105469 28.902344 21.609375 C 28.902344 21.378906 28.902344 21.148438 28.902344 20.917969 C 28.902344 20.695312 28.902344 20.472656 28.902344 20.253906 C 28.902344 20.167969 28.902344 20.082031 28.902344 19.996094 C 28.902344 19.878906 28.902344 19.761719 28.902344 19.640625 C 28.902344 19.605469 28.898438 19.570312 28.898438 19.535156 C 28.902344 19.242188 28.902344 19.242188 29.050781 19.230469 Z M 29.050781 19.230469 "/>
<path style=" stroke:none;fill-rule:nonzero;fill:rgb(2.745098%,32.549021%,56.078434%);fill-opacity:1;" d="M 33.265625 32.222656 C 33.328125 32.222656 33.386719 32.226562 33.445312 32.226562 C 33.28125 32.339844 33.15625 32.363281 32.960938 32.402344 C 32.898438 32.414062 32.839844 32.425781 32.777344 32.4375 C 32.324219 32.515625 31.867188 32.527344 31.410156 32.523438 C 31.320312 32.523438 31.320312 32.523438 31.230469 32.523438 C 31.066406 32.523438 30.90625 32.523438 30.746094 32.523438 C 30.574219 32.523438 30.40625 32.523438 30.234375 32.523438 C 29.914062 32.523438 29.59375 32.523438 29.273438 32.523438 C 28.910156 32.523438 28.542969 32.523438 28.179688 32.523438 C 27.429688 32.519531 26.679688 32.519531 25.929688 32.519531 C 25.929688 32.488281 25.929688 32.453125 25.929688 32.421875 C 26.023438 32.421875 26.023438 32.421875 26.121094 32.421875 C 26.207031 32.425781 26.292969 32.425781 26.375 32.425781 C 26.441406 32.425781 26.441406 32.425781 26.503906 32.425781 C 26.566406 32.425781 26.566406 32.425781 26.628906 32.425781 C 26.683594 32.425781 26.683594 32.425781 26.742188 32.425781 C 26.855469 32.425781 26.855469 32.425781 26.957031 32.398438 C 27.152344 32.363281 27.34375 32.367188 27.542969 32.367188 C 27.585938 32.371094 27.628906 32.371094 27.675781 32.371094 C 27.769531 32.371094 27.867188 32.371094 27.960938 32.371094 C 28.113281 32.371094 28.265625 32.371094 28.417969 32.371094 C 28.851562 32.375 29.285156 32.375 29.71875 32.378906 C 29.984375 32.378906 30.25 32.378906 30.515625 32.378906 C 30.617188 32.378906 30.71875 32.382812 30.816406 32.382812 C 31.636719 32.386719 32.460938 32.210938 33.265625 32.222656 Z M 33.265625 32.222656 "/>
<path style=" stroke:none;fill-rule:nonzero;fill:rgb(1.960784%,29.019609%,51.764709%);fill-opacity:1;" d="M 13.753906 27.53125 C 13.84375 27.535156 13.84375 27.535156 13.933594 27.535156 C 13.980469 27.535156 13.980469 27.535156 14.03125 27.535156 C 14.140625 27.535156 14.246094 27.535156 14.355469 27.535156 C 14.429688 27.535156 14.503906 27.535156 14.578125 27.535156 C 14.773438 27.535156 14.96875 27.535156 15.164062 27.535156 C 15.367188 27.535156 15.566406 27.535156 15.765625 27.535156 C 16.15625 27.539062 16.550781 27.539062 16.941406 27.539062 C 16.941406 27.570312 16.941406 27.605469 16.941406 27.636719 C 15.863281 27.636719 14.785156 27.636719 13.671875 27.636719 C 13.703125 27.992188 13.734375 28.347656 13.769531 28.710938 C 13.769531 28.855469 13.769531 29 13.769531 29.152344 C 13.515625 28.898438 13.566406 28.261719 13.566406 27.910156 C 13.566406 27.542969 13.566406 27.542969 13.753906 27.53125 Z M 13.753906 27.53125 "/>
<path style=" stroke:none;fill-rule:nonzero;fill:rgb(5.098039%,26.274511%,46.27451%);fill-opacity:1;" d="M 15.578125 39.796875 C 15.609375 39.796875 15.644531 39.800781 15.679688 39.804688 C 17.035156 39.910156 18.386719 39.914062 19.742188 39.921875 C 20.050781 39.925781 20.359375 39.925781 20.664062 39.929688 C 21.265625 39.933594 21.863281 39.9375 22.460938 39.941406 C 22.460938 39.957031 22.460938 39.972656 22.460938 39.992188 C 21.664062 39.992188 20.863281 39.996094 20.066406 39.996094 C 19.695312 39.996094 19.324219 39.996094 18.953125 39.996094 C 18.628906 40 18.304688 40 17.984375 40 C 17.8125 40 17.640625 40 17.46875 40 C 17.277344 40 17.085938 40 16.894531 40 C 16.8125 40 16.8125 40 16.726562 40.003906 C 15.78125 40 15.78125 40 15.578125 39.796875 Z M 15.578125 39.796875 "/>
<path style=" stroke:none;fill-rule:nonzero;fill:rgb(5.882353%,34.509805%,56.078434%);fill-opacity:1;" d="M 38.085938 11.914062 C 38.273438 11.941406 38.375 12.027344 38.511719 12.15625 C 38.550781 12.191406 38.589844 12.222656 38.632812 12.261719 C 38.71875 12.351562 38.71875 12.351562 38.71875 12.453125 C 38.769531 12.46875 38.816406 12.484375 38.867188 12.5 C 38.957031 12.597656 39.035156 12.695312 39.117188 12.800781 C 39.140625 12.828125 39.164062 12.859375 39.1875 12.890625 C 39.640625 13.484375 40.320312 14.421875 40.28125 15.1875 C 40.164062 15.066406 40.136719 14.972656 40.082031 14.8125 C 39.714844 13.84375 39.125 12.789062 38.28125 12.15625 C 38.28125 12.125 38.28125 12.09375 38.28125 12.0625 C 38.21875 12.027344 38.152344 11.996094 38.085938 11.960938 C 38.085938 11.945312 38.085938 11.929688 38.085938 11.914062 Z M 38.085938 11.914062 "/>
<path style=" stroke:none;fill-rule:nonzero;fill:rgb(6.27451%,35.686275%,58.039218%);fill-opacity:1;" d="M 18.40625 19.335938 C 18.320312 19.394531 18.230469 19.453125 18.140625 19.503906 C 17.699219 19.765625 17.4375 20.027344 17.308594 20.527344 C 17.230469 20.945312 17.285156 21.300781 17.480469 21.679688 C 17.582031 21.824219 17.695312 21.945312 17.820312 22.070312 C 17.863281 22.109375 17.902344 22.152344 17.941406 22.191406 C 17.964844 22.214844 17.992188 22.242188 18.015625 22.265625 C 17.785156 22.257812 17.667969 22.140625 17.515625 21.980469 C 17.183594 21.558594 17.101562 21.132812 17.140625 20.605469 C 17.226562 20.140625 17.492188 19.761719 17.875 19.492188 C 18.0625 19.375 18.183594 19.324219 18.40625 19.335938 Z M 18.40625 19.335938 "/>
<path style=" stroke:none;fill-rule:nonzero;fill:rgb(5.098039%,34.509805%,56.862748%);fill-opacity:1;" d="M 14.257812 22.703125 C 14.421875 22.855469 14.515625 23.003906 14.613281 23.203125 C 15.101562 24.128906 15.828125 24.609375 16.75 25.046875 C 16.75 25.082031 16.75 25.113281 16.75 25.148438 C 16.011719 25.027344 15.3125 24.429688 14.84375 23.875 C 14.257812 23.035156 14.257812 23.035156 14.257812 22.703125 Z M 14.257812 22.703125 "/>
<path style=" stroke:none;fill-rule:nonzero;fill:rgb(5.882353%,33.333334%,54.509807%);fill-opacity:1;" d="M 10.304688 36.179688 C 10.449219 36.316406 10.550781 36.453125 10.652344 36.625 C 10.839844 36.921875 11.050781 37.183594 11.28125 37.453125 C 11.308594 37.484375 11.335938 37.519531 11.363281 37.554688 C 11.683594 37.941406 12.089844 38.242188 12.5 38.523438 C 12.414062 38.558594 12.414062 38.558594 12.304688 38.574219 C 12.210938 38.527344 12.210938 38.527344 12.121094 38.460938 C 12.078125 38.429688 12.078125 38.429688 12.03125 38.394531 C 12.007812 38.375 11.984375 38.351562 11.960938 38.328125 C 11.960938 38.296875 11.960938 38.265625 11.960938 38.234375 C 11.933594 38.21875 11.90625 38.207031 11.875 38.191406 C 11.230469 37.851562 10.609375 36.976562 10.304688 36.328125 C 10.304688 36.28125 10.304688 36.230469 10.304688 36.179688 Z M 10.304688 36.179688 "/>
<path style=" stroke:none;fill-rule:nonzero;fill:rgb(4.313726%,33.333334%,56.078434%);fill-opacity:1;" d="M 24.21875 25.734375 C 24.394531 25.890625 24.441406 26.0625 24.515625 26.28125 C 24.527344 26.320312 24.539062 26.359375 24.554688 26.402344 C 24.785156 27.136719 24.832031 27.949219 24.707031 28.710938 C 24.691406 28.710938 24.675781 28.710938 24.65625 28.710938 C 24.65625 28.667969 24.65625 28.628906 24.652344 28.582031 C 24.640625 27.265625 24.640625 27.265625 24.265625 26.027344 C 24.21875 25.929688 24.21875 25.929688 24.21875 25.734375 Z M 24.21875 25.734375 "/>
<path style=" stroke:none;fill-rule:nonzero;fill:rgb(5.882353%,35.294119%,58.039218%);fill-opacity:1;" d="M 33.886719 17.039062 C 34.707031 17.292969 35.339844 17.855469 35.777344 18.582031 C 35.839844 18.703125 35.894531 18.816406 35.9375 18.945312 C 35.921875 18.992188 35.90625 19.042969 35.890625 19.09375 C 35.890625 19.058594 35.890625 19.027344 35.890625 18.992188 C 35.855469 18.992188 35.824219 18.992188 35.789062 18.992188 C 35.777344 18.964844 35.765625 18.933594 35.75 18.902344 C 35.601562 18.589844 35.429688 18.328125 35.203125 18.066406 C 35.183594 18.039062 35.160156 18.007812 35.132812 17.980469 C 34.835938 17.648438 34.359375 17.328125 33.9375 17.1875 C 33.917969 17.140625 33.902344 17.089844 33.886719 17.039062 Z M 33.886719 17.039062 "/>
<path style=" stroke:none;fill-rule:nonzero;fill:rgb(5.882353%,35.294119%,57.647061%);fill-opacity:1;" d="M 35.644531 10.546875 C 35.773438 10.546875 35.902344 10.546875 36.035156 10.546875 C 36.035156 10.578125 36.035156 10.609375 36.035156 10.644531 C 36.074219 10.65625 36.074219 10.65625 36.117188 10.667969 C 36.402344 10.757812 36.664062 10.875 36.929688 11.015625 C 36.988281 11.046875 36.988281 11.046875 37.050781 11.082031 C 37.933594 11.558594 37.933594 11.558594 38.039062 11.867188 C 37.878906 11.792969 37.738281 11.699219 37.59375 11.601562 C 37 11.183594 37 11.183594 36.328125 10.9375 C 36.328125 10.90625 36.328125 10.875 36.328125 10.839844 C 36.300781 10.832031 36.269531 10.820312 36.242188 10.8125 C 36.039062 10.746094 35.839844 10.675781 35.644531 10.59375 C 35.644531 10.578125 35.644531 10.5625 35.644531 10.546875 Z M 35.644531 10.546875 "/>
<path style=" stroke:none;fill-rule:nonzero;fill:rgb(5.490196%,36.078432%,58.823532%);fill-opacity:1;" d="M 33.265625 32.222656 C 33.355469 32.226562 33.355469 32.226562 33.445312 32.226562 C 32.746094 32.695312 31.460938 32.554688 30.664062 32.46875 C 30.679688 32.4375 30.695312 32.40625 30.710938 32.375 C 30.738281 32.375 30.765625 32.375 30.796875 32.375 C 31.625 32.386719 32.453125 32.210938 33.265625 32.222656 Z M 33.265625 32.222656 "/>
<path style=" stroke:none;fill-rule:nonzero;fill:rgb(5.882353%,33.725491%,55.29412%);fill-opacity:1;" d="M 11.328125 12.351562 C 11.441406 12.363281 11.441406 12.363281 11.523438 12.402344 C 11.476562 12.4375 11.429688 12.476562 11.382812 12.511719 C 11.257812 12.613281 11.199219 12.695312 11.132812 12.84375 C 11.050781 12.921875 10.96875 13.003906 10.890625 13.085938 C 10.519531 13.515625 10.253906 14.042969 10.007812 14.550781 C 9.992188 14.550781 9.976562 14.550781 9.960938 14.550781 C 9.984375 14.28125 10.058594 14.082031 10.191406 13.847656 C 10.210938 13.816406 10.230469 13.78125 10.25 13.75 C 10.542969 13.253906 10.898438 12.738281 11.328125 12.351562 Z M 11.328125 12.351562 "/>
<path style=" stroke:none;fill-rule:nonzero;fill:rgb(5.490196%,34.509805%,56.470591%);fill-opacity:1;" d="M 24.21875 30.175781 C 24.242188 30.222656 24.242188 30.222656 24.265625 30.273438 C 23.902344 31.082031 23.222656 31.664062 22.460938 32.078125 C 22.429688 32.078125 22.398438 32.078125 22.363281 32.078125 C 22.363281 32.046875 22.363281 32.015625 22.363281 31.984375 C 22.464844 31.910156 22.464844 31.910156 22.601562 31.828125 C 23.234375 31.4375 23.695312 31 24.050781 30.34375 C 24.121094 30.226562 24.121094 30.226562 24.21875 30.175781 Z M 24.21875 30.175781 "/>
<path style=" stroke:none;fill-rule:nonzero;fill:rgb(5.882353%,32.941177%,54.509807%);fill-opacity:1;" d="M 40.578125 32.46875 C 40.625 32.503906 40.671875 32.535156 40.722656 32.570312 C 40.773438 32.855469 40.710938 33.175781 40.667969 33.460938 C 40.660156 33.5 40.65625 33.542969 40.648438 33.585938 C 40.5625 34.121094 40.40625 34.640625 40.234375 35.15625 C 40.203125 35.15625 40.171875 35.15625 40.136719 35.15625 C 40.1875 34.871094 40.253906 34.589844 40.332031 34.3125 C 40.496094 33.703125 40.546875 33.097656 40.578125 32.46875 Z M 40.578125 32.46875 "/>
<path style=" stroke:none;fill-rule:nonzero;fill:rgb(5.490196%,34.509805%,56.470591%);fill-opacity:1;" d="M 13.867188 29.539062 C 13.898438 29.539062 13.929688 29.539062 13.964844 29.539062 C 13.980469 29.582031 13.996094 29.625 14.011719 29.667969 C 14.269531 30.3125 14.632812 30.828125 15.140625 31.300781 C 15.234375 31.398438 15.234375 31.398438 15.28125 31.542969 C 14.753906 31.320312 14.378906 30.707031 14.109375 30.226562 C 14.109375 30.191406 14.109375 30.160156 14.109375 30.125 C 14.078125 30.125 14.046875 30.125 14.015625 30.125 C 13.988281 30.066406 13.964844 30.003906 13.941406 29.945312 C 13.925781 29.910156 13.914062 29.875 13.898438 29.839844 C 13.867188 29.734375 13.867188 29.734375 13.867188 29.539062 Z M 13.867188 29.539062 "/>
<path style=" stroke:none;fill-rule:nonzero;fill:rgb(8.235294%,38.039216%,59.215689%);fill-opacity:1;" d="M 35.59375 39.550781 C 35.5625 39.550781 35.53125 39.550781 35.5 39.550781 C 35.5 39.582031 35.5 39.617188 35.5 39.648438 C 35.0625 39.769531 34.632812 39.863281 34.1875 39.929688 C 34.144531 39.933594 34.101562 39.941406 34.058594 39.949219 C 33.773438 39.988281 33.492188 39.996094 33.203125 39.992188 C 33.203125 39.972656 33.203125 39.957031 33.203125 39.941406 C 33.285156 39.925781 33.363281 39.910156 33.445312 39.890625 C 33.445312 39.875 33.445312 39.859375 33.445312 39.84375 C 33.523438 39.835938 33.523438 39.835938 33.601562 39.832031 C 34.105469 39.785156 34.589844 39.695312 35.082031 39.578125 C 35.148438 39.5625 35.148438 39.5625 35.21875 39.546875 C 35.261719 39.539062 35.300781 39.527344 35.34375 39.515625 C 35.449219 39.5 35.449219 39.5 35.59375 39.550781 Z M 35.59375 39.550781 "/>
<path style=" stroke:none;fill-rule:nonzero;fill:rgb(6.27451%,33.725491%,54.901963%);fill-opacity:1;" d="M 38.039062 38.085938 C 38.070312 38.101562 38.101562 38.117188 38.132812 38.132812 C 37.6875 38.59375 36.824219 39.332031 36.140625 39.363281 C 36.105469 39.359375 36.070312 39.359375 36.035156 39.355469 C 36.207031 39.210938 36.398438 39.121094 36.601562 39.027344 C 37.125 38.769531 37.585938 38.460938 38.039062 38.085938 Z M 38.039062 38.085938 "/>
<path style=" stroke:none;fill-rule:nonzero;fill:rgb(2.352941%,29.411766%,52.156866%);fill-opacity:1;" d="M 29.3125 19.234375 C 29.378906 19.234375 29.378906 19.234375 29.449219 19.234375 C 29.496094 19.234375 29.542969 19.234375 29.589844 19.234375 C 29.640625 19.234375 29.6875 19.234375 29.738281 19.234375 C 29.894531 19.234375 30.050781 19.234375 30.207031 19.234375 C 30.3125 19.234375 30.417969 19.234375 30.523438 19.234375 C 30.78125 19.238281 31.039062 19.238281 31.296875 19.238281 C 31.324219 19.3125 31.324219 19.3125 31.347656 19.382812 C 30.574219 19.382812 29.800781 19.382812 29.003906 19.382812 C 29.003906 19.351562 29.003906 19.320312 29.003906 19.285156 C 29.117188 19.230469 29.1875 19.230469 29.3125 19.234375 Z M 29.3125 19.234375 "/>
<path style=" stroke:none;fill-rule:nonzero;fill:rgb(5.098039%,34.509805%,56.470591%);fill-opacity:1;" d="M 21.289062 16.648438 C 21.988281 16.699219 22.738281 17.160156 23.242188 17.625 C 23.320312 17.722656 23.378906 17.8125 23.4375 17.921875 C 23.265625 17.84375 23.140625 17.742188 23 17.617188 C 22.5625 17.257812 22.117188 17.023438 21.578125 16.851562 C 21.445312 16.800781 21.378906 16.761719 21.289062 16.648438 Z M 21.289062 16.648438 "/>
<path style=" stroke:none;fill-rule:nonzero;fill:rgb(3.529412%,27.843139%,49.019608%);fill-opacity:1;" d="M 36.179688 25.683594 C 36.34375 25.8125 36.402344 25.988281 36.476562 26.175781 C 36.488281 26.207031 36.503906 26.234375 36.515625 26.265625 C 36.71875 26.777344 36.730469 27.273438 36.726562 27.8125 C 36.722656 27.882812 36.722656 27.949219 36.722656 28.019531 C 36.722656 28.183594 36.722656 28.351562 36.71875 28.515625 C 36.703125 28.515625 36.6875 28.515625 36.671875 28.515625 C 36.667969 28.480469 36.667969 28.441406 36.667969 28.40625 C 36.664062 28.238281 36.65625 28.070312 36.652344 27.902344 C 36.648438 27.84375 36.648438 27.785156 36.648438 27.726562 C 36.636719 27.4375 36.621094 27.179688 36.523438 26.90625 C 36.476562 26.722656 36.429688 26.539062 36.382812 26.351562 C 36.34375 26.222656 36.304688 26.109375 36.25 25.988281 C 36.179688 25.828125 36.179688 25.828125 36.179688 25.683594 Z M 36.179688 25.683594 "/>
<path style=" stroke:none;fill-rule:nonzero;fill:rgb(5.490196%,35.294119%,57.254905%);fill-opacity:1;" d="M 20.703125 26.757812 C 20.933594 26.792969 21.070312 26.917969 21.21875 27.09375 C 21.53125 27.523438 21.609375 27.96875 21.5625 28.492188 C 21.53125 28.628906 21.488281 28.667969 21.386719 28.757812 C 21.386719 28.734375 21.390625 28.707031 21.390625 28.679688 C 21.421875 27.777344 21.421875 27.777344 20.96875 27.023438 C 20.945312 27 20.921875 26.976562 20.898438 26.953125 C 20.839844 26.894531 20.839844 26.894531 20.78125 26.835938 C 20.757812 26.808594 20.730469 26.785156 20.703125 26.757812 Z M 20.703125 26.757812 "/>
<path style=" stroke:none;fill-rule:nonzero;fill:rgb(9.803922%,40.000001%,60.784316%);fill-opacity:1;" d="M 9.277344 32.226562 C 9.292969 32.226562 9.308594 32.226562 9.328125 32.226562 C 9.34375 32.421875 9.359375 32.613281 9.375 32.8125 C 9.390625 32.8125 9.40625 32.8125 9.421875 32.8125 C 9.425781 32.847656 9.429688 32.882812 9.429688 32.917969 C 9.457031 33.292969 9.519531 33.648438 9.601562 34.011719 C 9.625 34.113281 9.648438 34.21875 9.667969 34.320312 C 9.679688 34.363281 9.691406 34.410156 9.699219 34.457031 C 9.71875 34.570312 9.71875 34.570312 9.667969 34.71875 C 9.539062 34.445312 9.472656 34.1875 9.417969 33.894531 C 9.410156 33.851562 9.402344 33.808594 9.394531 33.765625 C 9.316406 33.367188 9.269531 32.976562 9.273438 32.566406 C 9.273438 32.5 9.273438 32.4375 9.277344 32.371094 C 9.277344 32.324219 9.277344 32.277344 9.277344 32.226562 Z M 9.277344 32.226562 "/>
<path style=" stroke:none;fill-rule:nonzero;fill:rgb(5.882353%,36.078432%,58.823532%);fill-opacity:1;" d="M 15.96875 31.984375 C 16.230469 32.011719 16.449219 32.074219 16.695312 32.175781 C 17.027344 32.308594 17.359375 32.4375 17.726562 32.429688 C 17.78125 32.425781 17.78125 32.425781 17.835938 32.425781 C 17.863281 32.425781 17.890625 32.421875 17.921875 32.421875 C 17.871094 32.453125 17.824219 32.484375 17.773438 32.519531 C 17.820312 32.550781 17.871094 32.585938 17.921875 32.617188 C 17.386719 32.582031 16.917969 32.4375 16.425781 32.246094 C 16.367188 32.226562 16.367188 32.226562 16.304688 32.203125 C 16.023438 32.09375 16.023438 32.09375 15.96875 31.984375 Z M 15.96875 31.984375 "/>
<path style=" stroke:none;fill-rule:nonzero;fill:rgb(2.745098%,29.803923%,52.156866%);fill-opacity:1;" d="M 13.710938 27.53125 C 13.960938 27.535156 14.203125 27.550781 14.453125 27.585938 C 14.453125 27.605469 14.453125 27.621094 14.453125 27.636719 C 14.195312 27.636719 13.9375 27.636719 13.671875 27.636719 C 13.679688 27.710938 13.6875 27.78125 13.691406 27.855469 C 13.703125 27.953125 13.710938 28.050781 13.71875 28.144531 C 13.726562 28.21875 13.726562 28.21875 13.734375 28.289062 C 13.761719 28.578125 13.773438 28.859375 13.769531 29.148438 C 13.515625 28.898438 13.566406 28.261719 13.566406 27.910156 C 13.566406 27.542969 13.566406 27.542969 13.710938 27.53125 Z M 13.710938 27.53125 "/>
<path style=" stroke:none;fill-rule:nonzero;fill:rgb(5.882353%,33.333334%,54.509807%);fill-opacity:1;" d="M 40.085938 35.203125 C 40.128906 35.324219 40.140625 35.386719 40.105469 35.507812 C 40.085938 35.546875 40.066406 35.582031 40.046875 35.625 C 40.027344 35.664062 40.007812 35.707031 39.988281 35.753906 C 39.964844 35.796875 39.941406 35.84375 39.921875 35.890625 C 39.898438 35.933594 39.875 35.980469 39.851562 36.027344 C 39.679688 36.375 39.488281 36.699219 39.257812 37.011719 C 39.210938 36.996094 39.160156 36.980469 39.109375 36.960938 C 39.132812 36.933594 39.152344 36.902344 39.171875 36.875 C 39.199219 36.835938 39.226562 36.796875 39.253906 36.753906 C 39.28125 36.71875 39.308594 36.679688 39.335938 36.636719 C 39.410156 36.53125 39.410156 36.53125 39.425781 36.421875 C 39.453125 36.328125 39.453125 36.328125 39.542969 36.246094 C 39.695312 36.082031 39.765625 35.890625 39.851562 35.683594 C 39.886719 35.605469 39.921875 35.523438 39.957031 35.445312 C 39.96875 35.410156 39.984375 35.375 40 35.335938 C 40.039062 35.253906 40.039062 35.253906 40.085938 35.203125 Z M 40.085938 35.203125 "/>
<path style=" stroke:none;fill-rule:nonzero;fill:rgb(9.803922%,44.705883%,67.450982%);fill-opacity:1;" d="M 24.316406 20.070312 C 24.460938 20.265625 24.460938 20.265625 24.414062 20.996094 C 23.445312 20.996094 22.480469 20.996094 21.484375 20.996094 C 21.484375 20.980469 21.484375 20.964844 21.484375 20.945312 C 22.886719 20.921875 22.886719 20.921875 24.316406 20.898438 C 24.316406 20.625 24.316406 20.351562 24.316406 20.070312 Z M 24.316406 20.070312 "/>
<path style=" stroke:none;fill-rule:nonzero;fill:rgb(4.705882%,33.333334%,55.686277%);fill-opacity:1;" d="M 34.667969 24.21875 C 35.246094 24.328125 35.714844 24.863281 36.039062 25.320312 C 36.085938 25.390625 36.132812 25.464844 36.179688 25.539062 C 36.164062 25.570312 36.148438 25.601562 36.132812 25.632812 C 36.003906 25.507812 35.890625 25.382812 35.785156 25.234375 C 35.480469 24.839844 35.121094 24.535156 34.667969 24.316406 C 34.667969 24.285156 34.667969 24.25 34.667969 24.21875 Z M 34.667969 24.21875 "/>
<path style=" stroke:none;fill-rule:nonzero;fill:rgb(7.058824%,35.686275%,57.254905%);fill-opacity:1;" d="M 13.625 39.210938 C 13.683594 39.230469 13.742188 39.25 13.804688 39.269531 C 14.09375 39.367188 14.390625 39.449219 14.683594 39.53125 C 14.738281 39.546875 14.792969 39.5625 14.847656 39.578125 C 15.074219 39.640625 15.296875 39.703125 15.527344 39.746094 C 15.527344 39.761719 15.527344 39.777344 15.527344 39.796875 C 15.171875 39.8125 14.882812 39.765625 14.542969 39.65625 C 14.503906 39.644531 14.460938 39.632812 14.421875 39.617188 C 14.300781 39.582031 14.179688 39.542969 14.0625 39.5 C 14.023438 39.488281 13.988281 39.476562 13.945312 39.464844 C 13.855469 39.433594 13.761719 39.394531 13.671875 39.355469 C 13.65625 39.308594 13.640625 39.257812 13.625 39.210938 Z M 13.625 39.210938 "/>
<path style=" stroke:none;fill-rule:nonzero;fill:rgb(5.490196%,34.509805%,56.470591%);fill-opacity:1;" d="M 13.429688 10.984375 C 13.40625 11 13.382812 11.015625 13.355469 11.027344 C 12.894531 11.300781 12.453125 11.582031 12.035156 11.921875 C 11.914062 12.011719 11.914062 12.011719 11.765625 12.011719 C 12.011719 11.695312 12.3125 11.492188 12.648438 11.28125 C 12.6875 11.253906 12.6875 11.253906 12.730469 11.226562 C 13.210938 10.917969 13.210938 10.917969 13.429688 10.984375 Z M 13.429688 10.984375 "/>
<path style=" stroke:none;fill-rule:nonzero;fill:rgb(3.529412%,30.980393%,53.333336%);fill-opacity:1;" d="M 19.179688 16.347656 C 19.234375 16.347656 19.285156 16.347656 19.339844 16.347656 C 19.605469 16.351562 19.855469 16.359375 20.117188 16.40625 C 20.117188 16.421875 20.117188 16.4375 20.117188 16.453125 C 19.402344 16.488281 18.6875 16.511719 17.96875 16.503906 C 17.96875 16.488281 17.96875 16.472656 17.96875 16.453125 C 18.375 16.375 18.765625 16.34375 19.179688 16.347656 Z M 19.179688 16.347656 "/>
<path style=" stroke:none;fill-rule:nonzero;fill:rgb(5.490196%,34.117648%,56.078434%);fill-opacity:1;" d="M 21.335938 28.808594 C 21.375 28.886719 21.375 28.886719 21.386719 29.003906 C 21.191406 29.390625 20.816406 29.695312 20.421875 29.851562 C 20.25 29.898438 20.097656 29.894531 19.921875 29.882812 C 20.070312 29.785156 20.199219 29.738281 20.367188 29.679688 C 20.820312 29.507812 21.128906 29.246094 21.335938 28.808594 Z M 21.335938 28.808594 "/>
<path style=" stroke:none;fill-rule:nonzero;fill:rgb(4.705882%,32.941177%,55.29412%);fill-opacity:1;" d="M 33.105469 21.484375 C 33.121094 21.484375 33.136719 21.484375 33.15625 21.484375 C 33.171875 21.804688 33.105469 21.992188 32.910156 22.246094 C 32.386719 22.828125 32.386719 22.828125 32.03125 22.867188 C 32 22.863281 31.96875 22.855469 31.933594 22.851562 C 32.015625 22.6875 32.191406 22.648438 32.351562 22.574219 C 32.464844 22.511719 32.53125 22.453125 32.617188 22.363281 C 32.648438 22.363281 32.679688 22.363281 32.714844 22.363281 C 32.734375 22.320312 32.734375 22.320312 32.757812 22.277344 C 32.792969 22.210938 32.828125 22.140625 32.859375 22.074219 C 32.960938 21.878906 33.042969 21.691406 33.105469 21.484375 Z M 33.105469 21.484375 "/>
<path style=" stroke:none;fill-rule:nonzero;fill:rgb(5.490196%,32.549021%,53.333336%);fill-opacity:1;" d="M 9.8125 14.84375 C 9.878906 15.039062 9.816406 15.171875 9.753906 15.363281 C 9.621094 15.785156 9.539062 16.210938 9.472656 16.648438 C 9.457031 16.648438 9.441406 16.648438 9.421875 16.648438 C 9.378906 16.222656 9.449219 15.855469 9.5625 15.445312 C 9.578125 15.398438 9.589844 15.347656 9.605469 15.300781 C 9.703125 14.957031 9.703125 14.957031 9.8125 14.84375 Z M 9.8125 14.84375 "/>
<path style=" stroke:none;fill-rule:nonzero;fill:rgb(6.27451%,32.941177%,53.725493%);fill-opacity:1;" d="M 15.578125 39.796875 C 16.375 39.84375 16.375 39.84375 17.1875 39.890625 C 17.1875 39.925781 17.1875 39.957031 17.1875 39.992188 C 16.078125 40.011719 16.078125 40.011719 15.671875 39.890625 C 15.640625 39.859375 15.609375 39.828125 15.578125 39.796875 Z M 15.578125 39.796875 "/>
<path style=" stroke:none;fill-rule:nonzero;fill:rgb(6.27451%,33.333334%,54.509807%);fill-opacity:1;" d="M 9.71875 34.765625 C 9.8125 34.8125 9.8125 34.8125 9.855469 34.925781 C 9.871094 34.972656 9.886719 35.019531 9.898438 35.070312 C 9.992188 35.363281 10.113281 35.632812 10.25 35.90625 C 10.269531 35.949219 10.285156 35.992188 10.304688 36.035156 C 10.285156 36.066406 10.269531 36.101562 10.253906 36.132812 C 10.066406 35.964844 9.996094 35.757812 9.902344 35.53125 C 9.875 35.46875 9.875 35.46875 9.847656 35.40625 C 9.753906 35.183594 9.691406 35.011719 9.71875 34.765625 Z M 9.71875 34.765625 "/>
<path style=" stroke:none;fill-rule:nonzero;fill:rgb(5.098039%,32.941177%,55.29412%);fill-opacity:1;" d="M 23.195312 24.460938 C 23.65625 24.746094 23.929688 25.128906 24.21875 25.585938 C 24.203125 25.617188 24.1875 25.648438 24.171875 25.683594 C 24.039062 25.5625 23.945312 25.429688 23.847656 25.285156 C 23.675781 25.046875 23.488281 24.847656 23.277344 24.648438 C 23.195312 24.5625 23.195312 24.5625 23.195312 24.460938 Z M 23.195312 24.460938 "/>
<path style=" stroke:none;fill-rule:nonzero;fill:rgb(5.490196%,34.901962%,56.862748%);fill-opacity:1;" d="M 35.890625 30.566406 C 35.890625 30.796875 35.746094 30.9375 35.59375 31.101562 C 35.5 31.1875 35.398438 31.257812 35.292969 31.332031 C 35.203125 31.394531 35.203125 31.394531 35.128906 31.472656 C 35.035156 31.566406 34.9375 31.597656 34.8125 31.640625 C 34.882812 31.484375 34.949219 31.40625 35.089844 31.3125 C 35.316406 31.148438 35.5 30.960938 35.695312 30.761719 C 35.757812 30.695312 35.824219 30.632812 35.890625 30.566406 Z M 35.890625 30.566406 "/>
<path style=" stroke:none;fill-rule:nonzero;fill:rgb(5.098039%,34.117648%,56.862748%);fill-opacity:1;" d="M 21.632812 23.632812 C 22.066406 23.757812 22.453125 23.964844 22.851562 24.171875 C 22.882812 24.1875 22.914062 24.203125 22.949219 24.21875 C 22.949219 24.25 22.949219 24.28125 22.949219 24.316406 C 22.792969 24.296875 22.707031 24.269531 22.574219 24.175781 C 22.367188 24.042969 22.160156 23.96875 21.929688 23.886719 C 21.84375 23.855469 21.761719 23.816406 21.679688 23.78125 C 21.664062 23.730469 21.648438 23.683594 21.632812 23.632812 Z M 21.632812 23.632812 "/>
<path style=" stroke:none;fill-rule:nonzero;fill:rgb(5.490196%,35.686275%,58.039218%);fill-opacity:1;" d="M 33.59375 27.195312 C 33.625 27.195312 33.65625 27.195312 33.691406 27.195312 C 33.792969 27.53125 33.792969 27.953125 33.640625 28.273438 C 33.609375 28.304688 33.578125 28.335938 33.546875 28.367188 C 33.5625 27.984375 33.578125 27.59375 33.59375 27.195312 Z M 33.59375 27.195312 "/>
<path style=" stroke:none;fill-rule:nonzero;fill:rgb(4.705882%,34.117648%,56.470591%);fill-opacity:1;" d="M 32.078125 19.484375 C 32.417969 19.5 32.632812 19.683594 32.855469 19.921875 C 33.007812 20.109375 33.007812 20.109375 33.054688 20.214844 C 33.039062 20.324219 33.039062 20.324219 33.007812 20.410156 C 32.984375 20.375 32.984375 20.375 32.957031 20.335938 C 32.714844 20 32.441406 19.734375 32.078125 19.53125 C 32.078125 19.515625 32.078125 19.5 32.078125 19.484375 Z M 32.078125 19.484375 "/>
<path style=" stroke:none;fill-rule:nonzero;fill:rgb(7.450981%,35.294119%,56.470591%);fill-opacity:1;" d="M 39.015625 37.0625 C 39.046875 37.0625 39.078125 37.0625 39.109375 37.0625 C 38.964844 37.492188 38.578125 37.808594 38.234375 38.085938 C 38.234375 37.9375 38.234375 37.9375 38.355469 37.808594 C 38.40625 37.757812 38.460938 37.707031 38.511719 37.65625 C 38.667969 37.507812 38.8125 37.371094 38.929688 37.1875 C 38.957031 37.144531 38.984375 37.105469 39.015625 37.0625 Z M 39.015625 37.0625 "/>
<path style=" stroke:none;fill-rule:nonzero;fill:rgb(9.411765%,42.352942%,64.313728%);fill-opacity:1;" d="M 36.621094 27.246094 C 36.636719 27.246094 36.652344 27.246094 36.671875 27.246094 C 36.679688 27.445312 36.691406 27.644531 36.699219 27.84375 C 36.703125 27.910156 36.707031 27.976562 36.707031 28.042969 C 36.730469 28.472656 36.71875 28.839844 36.570312 29.25 C 36.554688 29.25 36.539062 29.25 36.523438 29.25 C 36.523438 29.179688 36.519531 29.113281 36.519531 29.046875 C 36.519531 29.007812 36.519531 28.972656 36.519531 28.933594 C 36.523438 28.808594 36.523438 28.808594 36.546875 28.671875 C 36.570312 28.515625 36.582031 28.367188 36.585938 28.210938 C 36.589844 28.152344 36.59375 28.097656 36.59375 28.039062 C 36.597656 27.980469 36.597656 27.921875 36.601562 27.863281 C 36.601562 27.804688 36.605469 27.742188 36.605469 27.683594 C 36.609375 27.539062 36.617188 27.390625 36.621094 27.246094 Z M 36.621094 27.246094 "/>
<path style=" stroke:none;fill-rule:nonzero;fill:rgb(5.490196%,35.294119%,58.039218%);fill-opacity:1;" d="M 32.8125 26.074219 C 33.15625 26.1875 33.359375 26.46875 33.546875 26.769531 C 33.59375 26.90625 33.605469 27.003906 33.59375 27.148438 C 33.492188 27.027344 33.429688 26.914062 33.367188 26.769531 C 33.261719 26.542969 33.09375 26.410156 32.902344 26.253906 C 32.871094 26.226562 32.84375 26.199219 32.8125 26.171875 C 32.8125 26.140625 32.8125 26.109375 32.8125 26.074219 Z M 32.8125 26.074219 "/>
<path style=" stroke:none;fill-rule:nonzero;fill:rgb(5.490196%,34.901962%,56.862748%);fill-opacity:1;" d="M 34.625 31.710938 C 34.65625 31.71875 34.6875 31.730469 34.714844 31.738281 C 33.902344 32.167969 33.902344 32.167969 33.496094 32.226562 C 33.527344 32.210938 33.558594 32.195312 33.59375 32.175781 C 33.59375 32.144531 33.59375 32.113281 33.59375 32.078125 C 33.640625 32.0625 33.6875 32.046875 33.734375 32.03125 C 33.796875 32.011719 33.859375 31.988281 33.921875 31.96875 C 33.980469 31.945312 34.042969 31.925781 34.105469 31.902344 C 34.277344 31.84375 34.277344 31.84375 34.410156 31.75 C 34.519531 31.6875 34.519531 31.6875 34.625 31.710938 Z M 34.625 31.710938 "/>
<path style=" stroke:none;fill-rule:nonzero;fill:rgb(3.529412%,32.156864%,54.509807%);fill-opacity:1;" d="M 33.742188 10.15625 C 33.898438 10.152344 34.058594 10.152344 34.21875 10.148438 C 34.265625 10.148438 34.308594 10.148438 34.355469 10.148438 C 34.398438 10.148438 34.445312 10.148438 34.488281 10.148438 C 34.527344 10.144531 34.570312 10.144531 34.609375 10.144531 C 34.789062 10.164062 34.917969 10.292969 35.058594 10.398438 C 34.613281 10.363281 34.179688 10.285156 33.742188 10.203125 C 33.742188 10.1875 33.742188 10.171875 33.742188 10.15625 Z M 33.742188 10.15625 "/>
<path style=" stroke:none;fill-rule:nonzero;fill:rgb(5.490196%,36.078432%,58.823532%);fill-opacity:1;" d="M 18.75 19.140625 C 19.039062 19.140625 19.328125 19.140625 19.628906 19.140625 C 19.628906 19.171875 19.628906 19.203125 19.628906 19.238281 C 19.695312 19.253906 19.757812 19.269531 19.824219 19.289062 C 19.765625 19.285156 19.707031 19.285156 19.648438 19.285156 C 19.25 19.28125 18.855469 19.285156 18.457031 19.335938 C 18.601562 19.238281 18.601562 19.238281 18.75 19.238281 C 18.75 19.207031 18.75 19.171875 18.75 19.140625 Z M 18.75 19.140625 "/>
<path style=" stroke:none;fill-rule:nonzero;fill:rgb(7.843138%,39.607844%,62.352943%);fill-opacity:1;" d="M 20.898438 16.503906 C 20.898438 16.535156 20.898438 16.570312 20.898438 16.601562 C 20.929688 16.617188 20.960938 16.632812 20.996094 16.648438 C 20.949219 16.644531 20.898438 16.636719 20.851562 16.628906 C 20.394531 16.570312 19.941406 16.527344 19.484375 16.503906 C 19.484375 16.488281 19.484375 16.472656 19.484375 16.453125 C 19.972656 16.394531 20.414062 16.429688 20.898438 16.503906 Z M 20.898438 16.503906 "/>
<path style=" stroke:none;fill-rule:nonzero;fill:rgb(5.490196%,34.509805%,56.862748%);fill-opacity:1;" d="M 17.921875 16.503906 C 17.742188 16.621094 17.570312 16.671875 17.363281 16.730469 C 17.328125 16.742188 17.289062 16.753906 17.253906 16.765625 C 17.0625 16.820312 16.898438 16.859375 16.699219 16.84375 C 16.824219 16.71875 16.933594 16.699219 17.105469 16.648438 C 17.160156 16.628906 17.214844 16.613281 17.273438 16.597656 C 17.492188 16.535156 17.691406 16.496094 17.921875 16.503906 Z M 17.921875 16.503906 "/>
<path style=" stroke:none;fill-rule:nonzero;fill:rgb(5.098039%,32.549021%,54.11765%);fill-opacity:1;" d="M 35.59375 39.550781 C 35.5625 39.550781 35.53125 39.550781 35.5 39.550781 C 35.5 39.582031 35.5 39.617188 35.5 39.648438 C 35.117188 39.761719 34.773438 39.816406 34.375 39.796875 C 34.582031 39.683594 34.785156 39.640625 35.011719 39.589844 C 35.050781 39.582031 35.09375 39.570312 35.132812 39.5625 C 35.191406 39.550781 35.191406 39.550781 35.25 39.535156 C 35.300781 39.523438 35.300781 39.523438 35.355469 39.511719 C 35.449219 39.5 35.449219 39.5 35.59375 39.550781 Z M 35.59375 39.550781 "/>
<path style=" stroke:none;fill-rule:nonzero;fill:rgb(5.882353%,34.117648%,56.078434%);fill-opacity:1;" d="M 12.546875 38.625 C 12.722656 38.6875 12.875 38.765625 13.035156 38.863281 C 13.210938 38.972656 13.386719 39.070312 13.574219 39.160156 C 13.460938 39.199219 13.398438 39.214844 13.285156 39.175781 C 13.253906 39.160156 13.222656 39.140625 13.191406 39.121094 C 13.140625 39.09375 13.140625 39.09375 13.085938 39.0625 C 13.035156 39.03125 13.035156 39.03125 12.980469 39 C 12.941406 38.980469 12.90625 38.960938 12.871094 38.941406 C 12.605469 38.789062 12.605469 38.789062 12.546875 38.625 Z M 12.546875 38.625 "/>
<path style=" stroke:none;fill-rule:nonzero;fill:rgb(7.058824%,38.431373%,61.176473%);fill-opacity:1;" d="M 40.578125 32.46875 C 40.648438 32.519531 40.648438 32.519531 40.722656 32.570312 C 40.757812 32.960938 40.683594 33.351562 40.625 33.742188 C 40.609375 33.742188 40.59375 33.742188 40.578125 33.742188 C 40.507812 33.3125 40.542969 32.898438 40.578125 32.46875 Z M 40.578125 32.46875 "/>
<path style=" stroke:none;fill-rule:nonzero;fill:rgb(6.666667%,37.254903%,58.823532%);fill-opacity:1;" d="M 35.789062 22.414062 C 35.808594 22.414062 35.824219 22.414062 35.839844 22.414062 C 35.855469 22.648438 35.824219 22.761719 35.683594 22.953125 C 35.652344 22.992188 35.621094 23.035156 35.589844 23.078125 C 35.484375 23.210938 35.378906 23.324219 35.253906 23.4375 C 35.285156 23.257812 35.367188 23.132812 35.46875 22.980469 C 35.589844 22.792969 35.699219 22.613281 35.789062 22.414062 Z M 35.789062 22.414062 "/>
<path style=" stroke:none;fill-rule:nonzero;fill:rgb(4.705882%,32.549021%,54.11765%);fill-opacity:1;" d="M 15.234375 17.726562 C 15.265625 17.742188 15.296875 17.757812 15.332031 17.773438 C 15.246094 17.875 15.160156 17.980469 15.074219 18.082031 C 15.046875 18.109375 15.023438 18.140625 15 18.167969 C 14.976562 18.199219 14.953125 18.226562 14.925781 18.253906 C 14.90625 18.28125 14.882812 18.308594 14.859375 18.332031 C 14.792969 18.410156 14.722656 18.484375 14.648438 18.554688 C 14.648438 18.398438 14.667969 18.359375 14.746094 18.234375 C 14.851562 18.085938 14.851562 18.085938 14.84375 17.96875 C 14.882812 17.957031 14.917969 17.941406 14.957031 17.929688 C 15.082031 17.875 15.144531 17.828125 15.234375 17.726562 Z M 15.234375 17.726562 "/>
<path style=" stroke:none;fill-rule:nonzero;fill:rgb(5.098039%,34.509805%,56.470591%);fill-opacity:1;" d="M 20.703125 19.679688 C 20.886719 19.703125 20.957031 19.773438 21.074219 19.914062 C 21.105469 19.945312 21.132812 19.980469 21.164062 20.015625 C 21.300781 20.199219 21.351562 20.324219 21.335938 20.554688 C 21.238281 20.457031 21.195312 20.378906 21.128906 20.253906 C 21.011719 20.035156 20.871094 19.863281 20.703125 19.679688 Z M 20.703125 19.679688 "/>
<path style=" stroke:none;fill-rule:nonzero;fill:rgb(4.313726%,32.941177%,55.686277%);fill-opacity:1;" d="M 17.820312 29.589844 C 17.882812 29.609375 17.941406 29.632812 18.003906 29.652344 C 18.296875 29.753906 18.59375 29.816406 18.898438 29.882812 C 18.898438 29.898438 18.898438 29.914062 18.898438 29.929688 C 18.527344 29.957031 18.195312 29.9375 17.871094 29.734375 C 17.855469 29.6875 17.839844 29.640625 17.820312 29.589844 Z M 17.820312 29.589844 "/>
<path style=" stroke:none;fill-rule:nonzero;fill:rgb(5.490196%,34.117648%,56.470591%);fill-opacity:1;" d="M 33.300781 28.757812 C 33.316406 28.808594 33.332031 28.855469 33.351562 28.90625 C 33.191406 29.144531 32.984375 29.335938 32.714844 29.445312 C 32.605469 29.425781 32.605469 29.425781 32.519531 29.394531 C 32.554688 29.375 32.589844 29.351562 32.628906 29.328125 C 32.898438 29.164062 33.117188 29.019531 33.300781 28.757812 Z M 33.300781 28.757812 "/>
<path style=" stroke:none;fill-rule:nonzero;fill:rgb(4.313726%,34.117648%,56.470591%);fill-opacity:1;" d="M 35.007812 23.535156 C 35.058594 23.550781 35.105469 23.566406 35.15625 23.585938 C 35.09375 23.652344 35.027344 23.714844 34.960938 23.78125 C 34.929688 23.78125 34.898438 23.78125 34.863281 23.78125 C 34.863281 23.8125 34.863281 23.84375 34.863281 23.875 C 34.648438 24.023438 34.648438 24.023438 34.523438 24.023438 C 34.523438 24.054688 34.523438 24.085938 34.523438 24.121094 C 34.472656 24.121094 34.425781 24.121094 34.375 24.121094 C 34.375 24.074219 34.375 24.023438 34.375 23.976562 C 34.476562 23.902344 34.476562 23.902344 34.609375 23.828125 C 34.765625 23.742188 34.890625 23.667969 35.007812 23.535156 Z M 35.007812 23.535156 "/>
<path style=" stroke:none;fill-rule:nonzero;fill:rgb(5.098039%,33.725491%,56.078434%);fill-opacity:1;" d="M 17.089844 28.859375 C 17.171875 28.9375 17.253906 29.019531 17.335938 29.101562 C 17.394531 29.160156 17.394531 29.160156 17.460938 29.222656 C 17.574219 29.339844 17.675781 29.460938 17.773438 29.589844 C 17.566406 29.566406 17.425781 29.441406 17.285156 29.296875 C 17.089844 29.039062 17.089844 29.039062 17.089844 28.859375 Z M 17.089844 28.859375 "/>
<path style=" stroke:none;fill-rule:nonzero;fill:rgb(5.490196%,36.470589%,59.215689%);fill-opacity:1;" d="M 16.164062 10.058594 C 16.5 10.074219 16.839844 10.089844 17.1875 10.109375 C 17.1875 10.125 17.1875 10.140625 17.1875 10.15625 C 16.65625 10.179688 16.65625 10.179688 16.113281 10.203125 C 16.128906 10.15625 16.144531 10.109375 16.164062 10.058594 Z M 16.164062 10.058594 "/>
<path style=" stroke:none;fill-rule:nonzero;fill:rgb(5.098039%,30.980393%,51.764709%);fill-opacity:1;" d="M 9.472656 33.742188 C 9.582031 33.90625 9.609375 34.035156 9.652344 34.226562 C 9.671875 34.320312 9.671875 34.320312 9.691406 34.410156 C 9.71875 34.570312 9.71875 34.570312 9.667969 34.71875 C 9.550781 34.453125 9.464844 34.242188 9.46875 33.949219 C 9.46875 33.910156 9.46875 33.871094 9.472656 33.828125 C 9.472656 33.800781 9.472656 33.769531 9.472656 33.742188 Z M 9.472656 33.742188 "/>
<path style=" stroke:none;fill-rule:nonzero;fill:rgb(6.27451%,34.901962%,56.078434%);fill-opacity:1;" d="M 14.550781 39.550781 C 14.886719 39.582031 15.203125 39.660156 15.527344 39.746094 C 15.527344 39.761719 15.527344 39.777344 15.527344 39.796875 C 15.214844 39.804688 14.949219 39.785156 14.648438 39.695312 C 14.648438 39.664062 14.648438 39.632812 14.648438 39.601562 C 14.617188 39.582031 14.585938 39.566406 14.550781 39.550781 Z M 14.550781 39.550781 "/>
<path style=" stroke:none;fill-rule:nonzero;fill:rgb(4.313726%,33.333334%,55.686277%);fill-opacity:1;" d="M 24.21875 25.734375 C 24.359375 25.851562 24.414062 25.972656 24.476562 26.144531 C 24.492188 26.191406 24.511719 26.238281 24.527344 26.285156 C 24.5625 26.417969 24.558594 26.484375 24.511719 26.609375 C 24.21875 26.054688 24.21875 26.054688 24.21875 25.734375 Z M 24.21875 25.734375 "/>
<path style=" stroke:none;fill-rule:nonzero;fill:rgb(5.098039%,33.333334%,55.29412%);fill-opacity:1;" d="M 22.023438 32.226562 C 21.972656 32.324219 21.972656 32.324219 21.835938 32.378906 C 21.78125 32.394531 21.722656 32.414062 21.664062 32.429688 C 21.582031 32.457031 21.582031 32.457031 21.492188 32.484375 C 21.347656 32.515625 21.28125 32.523438 21.140625 32.46875 C 21.242188 32.429688 21.34375 32.390625 21.445312 32.347656 C 21.5 32.324219 21.558594 32.304688 21.613281 32.28125 C 21.761719 32.230469 21.867188 32.214844 22.023438 32.226562 Z M 22.023438 32.226562 "/>
<path style=" stroke:none;fill-rule:nonzero;fill:rgb(6.27451%,35.294119%,57.254905%);fill-opacity:1;" d="M 9.523438 15.625 C 9.539062 15.625 9.554688 15.625 9.570312 15.625 C 9.585938 15.980469 9.546875 16.304688 9.472656 16.648438 C 9.457031 16.648438 9.441406 16.648438 9.421875 16.648438 C 9.414062 16.292969 9.414062 15.96875 9.523438 15.625 Z M 9.523438 15.625 "/>
<path style=" stroke:none;fill-rule:nonzero;fill:rgb(5.098039%,32.941177%,54.509807%);fill-opacity:1;" d="M 23.484375 17.96875 C 23.6875 18.152344 23.859375 18.355469 23.976562 18.601562 C 23.957031 18.636719 23.941406 18.667969 23.925781 18.703125 C 23.804688 18.589844 23.714844 18.46875 23.625 18.335938 C 23.597656 18.296875 23.570312 18.257812 23.546875 18.21875 C 23.484375 18.117188 23.484375 18.117188 23.484375 17.96875 Z M 23.484375 17.96875 "/>
<path style=" stroke:none;fill-rule:nonzero;fill:rgb(4.705882%,33.333334%,55.686277%);fill-opacity:1;" d="M 17.480469 25.4375 C 17.773438 25.464844 18 25.554688 18.261719 25.683594 C 18.261719 25.714844 18.261719 25.75 18.261719 25.78125 C 17.996094 25.695312 17.738281 25.601562 17.480469 25.488281 C 17.480469 25.472656 17.480469 25.457031 17.480469 25.4375 Z M 17.480469 25.4375 "/>
<path style=" stroke:none;fill-rule:nonzero;fill:rgb(5.490196%,33.333334%,55.29412%);fill-opacity:1;" d="M 36.328125 29.734375 C 36.34375 29.769531 36.359375 29.800781 36.375 29.835938 C 36.320312 29.96875 36.320312 29.96875 36.238281 30.128906 C 36.214844 30.183594 36.1875 30.234375 36.160156 30.289062 C 36.085938 30.421875 36.085938 30.421875 35.984375 30.46875 C 36.015625 30.285156 36.066406 30.152344 36.15625 29.992188 C 36.179688 29.953125 36.199219 29.917969 36.222656 29.878906 C 36.28125 29.785156 36.28125 29.785156 36.328125 29.734375 Z M 36.328125 29.734375 "/>
<path style=" stroke:none;fill-rule:nonzero;fill:rgb(5.098039%,36.862746%,60.000002%);fill-opacity:1;" d="M 19.335938 26.125 C 19.574219 26.152344 19.757812 26.21875 19.96875 26.320312 C 19.96875 26.351562 19.96875 26.382812 19.96875 26.414062 C 19.902344 26.402344 19.832031 26.386719 19.761719 26.375 C 19.726562 26.367188 19.6875 26.359375 19.644531 26.347656 C 19.53125 26.320312 19.4375 26.277344 19.335938 26.21875 C 19.335938 26.1875 19.335938 26.15625 19.335938 26.125 Z M 19.335938 26.125 "/>
<path style=" stroke:none;fill-rule:nonzero;fill:rgb(6.666667%,36.470589%,57.647061%);fill-opacity:1;" d="M 13.671875 28.273438 C 13.6875 28.273438 13.703125 28.273438 13.71875 28.273438 C 13.757812 28.566406 13.773438 28.851562 13.769531 29.148438 C 13.628906 29.007812 13.628906 28.851562 13.625 28.664062 C 13.632812 28.53125 13.652344 28.402344 13.671875 28.273438 Z M 13.671875 28.273438 "/>
<path style=" stroke:none;fill-rule:nonzero;fill:rgb(7.843138%,38.039216%,60.000002%);fill-opacity:1;" d="M 36.476562 26.367188 C 36.523438 26.390625 36.523438 26.390625 36.570312 26.414062 C 36.628906 26.582031 36.625 26.714844 36.625 26.890625 C 36.625 26.945312 36.625 27.003906 36.621094 27.0625 C 36.621094 27.109375 36.621094 27.152344 36.621094 27.195312 C 36.605469 27.195312 36.589844 27.195312 36.570312 27.195312 C 36.460938 26.632812 36.460938 26.632812 36.476562 26.367188 Z M 36.476562 26.367188 "/>
<path style=" stroke:none;fill-rule:nonzero;fill:rgb(4.313726%,31.37255%,52.156866%);fill-opacity:1;" d="M 14.0625 21.875 C 14.078125 21.9375 14.09375 22.003906 14.109375 22.070312 C 14.144531 22.070312 14.175781 22.070312 14.210938 22.070312 C 14.257812 22.269531 14.261719 22.453125 14.257812 22.65625 C 14.101562 22.421875 14.042969 22.160156 14.0625 21.875 Z M 14.0625 21.875 "/>
<path style=" stroke:none;fill-rule:nonzero;fill:rgb(4.705882%,31.764707%,53.333336%);fill-opacity:1;" d="M 15.867188 17.1875 C 15.902344 17.203125 15.933594 17.21875 15.96875 17.234375 C 15.660156 17.550781 15.660156 17.550781 15.476562 17.675781 C 15.429688 17.660156 15.382812 17.644531 15.332031 17.625 C 15.507812 17.480469 15.6875 17.335938 15.867188 17.1875 Z M 15.867188 17.1875 "/>
<path style=" stroke:none;fill-rule:nonzero;fill:rgb(5.490196%,38.431373%,61.176473%);fill-opacity:1;" d="M 25.78125 31.640625 C 25.796875 31.640625 25.8125 31.640625 25.828125 31.640625 C 25.839844 31.726562 25.847656 31.808594 25.859375 31.894531 C 25.863281 31.941406 25.867188 31.988281 25.871094 32.035156 C 25.878906 32.175781 25.863281 32.289062 25.828125 32.421875 C 25.863281 32.421875 25.894531 32.421875 25.929688 32.421875 C 25.929688 32.453125 25.929688 32.484375 25.929688 32.519531 C 25.863281 32.503906 25.796875 32.488281 25.734375 32.46875 C 25.75 32.195312 25.765625 31.921875 25.78125 31.640625 Z M 25.78125 31.640625 "/>
<path style=" stroke:none;fill-rule:nonzero;fill:rgb(4.705882%,33.333334%,55.686277%);fill-opacity:1;" d="M 18.652344 22.507812 C 18.730469 22.53125 18.808594 22.550781 18.882812 22.574219 C 18.949219 22.589844 18.949219 22.589844 19.015625 22.609375 C 19.144531 22.65625 19.230469 22.714844 19.335938 22.804688 C 19.113281 22.777344 18.90625 22.746094 18.703125 22.65625 C 18.683594 22.609375 18.667969 22.558594 18.652344 22.507812 Z M 18.652344 22.507812 "/>
<path style=" stroke:none;fill-rule:nonzero;fill:rgb(4.313726%,33.333334%,55.686277%);fill-opacity:1;" d="M 17.53125 21.828125 C 17.59375 21.871094 17.65625 21.917969 17.71875 21.964844 C 17.753906 21.988281 17.789062 22.015625 17.824219 22.039062 C 17.921875 22.117188 17.921875 22.117188 18.015625 22.265625 C 17.839844 22.25 17.773438 22.21875 17.636719 22.101562 C 17.53125 21.972656 17.53125 21.972656 17.53125 21.828125 Z M 17.53125 21.828125 "/>
<path style=" stroke:none;fill-rule:nonzero;fill:rgb(4.705882%,33.333334%,56.078434%);fill-opacity:1;" d="M 32.765625 16.75 C 33.035156 16.769531 33.285156 16.8125 33.546875 16.894531 C 33.546875 16.910156 33.546875 16.925781 33.546875 16.945312 C 33.253906 16.960938 33.035156 16.898438 32.765625 16.796875 C 32.765625 16.78125 32.765625 16.765625 32.765625 16.75 Z M 32.765625 16.75 "/>
<path style=" stroke:none;fill-rule:nonzero;fill:rgb(7.450981%,38.431373%,60.000002%);fill-opacity:1;" d="M 11.328125 12.351562 C 11.390625 12.371094 11.457031 12.386719 11.523438 12.402344 C 11.363281 12.53125 11.203125 12.660156 11.035156 12.792969 C 11.035156 12.621094 11.054688 12.605469 11.167969 12.488281 C 11.195312 12.460938 11.21875 12.433594 11.246094 12.40625 C 11.285156 12.382812 11.285156 12.382812 11.328125 12.351562 Z M 11.328125 12.351562 "/>
<path style=" stroke:none;fill-rule:nonzero;fill:rgb(6.666667%,37.254903%,59.607846%);fill-opacity:1;" d="M 21.09375 32.519531 C 21.078125 32.550781 21.0625 32.585938 21.046875 32.617188 C 20.800781 32.675781 20.558594 32.675781 20.3125 32.617188 C 20.3125 32.601562 20.3125 32.585938 20.3125 32.570312 C 20.574219 32.523438 20.828125 32.515625 21.09375 32.519531 Z M 21.09375 32.519531 "/>
<path style=" stroke:none;fill-rule:nonzero;fill:rgb(4.705882%,34.117648%,57.254905%);fill-opacity:1;" d="M 15.332031 31.59375 C 15.644531 31.609375 15.644531 31.609375 15.792969 31.765625 C 15.816406 31.804688 15.84375 31.84375 15.867188 31.882812 C 15.820312 31.910156 15.820312 31.910156 15.773438 31.933594 C 15.699219 31.886719 15.625 31.839844 15.550781 31.789062 C 15.511719 31.761719 15.46875 31.738281 15.429688 31.710938 C 15.394531 31.6875 15.363281 31.664062 15.332031 31.640625 C 15.332031 31.625 15.332031 31.609375 15.332031 31.59375 Z M 15.332031 31.59375 "/>
<path style=" stroke:none;fill-rule:nonzero;fill:rgb(5.490196%,32.549021%,53.725493%);fill-opacity:1;" d="M 39.015625 37.0625 C 39.046875 37.0625 39.078125 37.0625 39.109375 37.0625 C 39.042969 37.253906 38.953125 37.394531 38.820312 37.546875 C 38.769531 37.53125 38.722656 37.515625 38.671875 37.5 C 38.726562 37.425781 38.78125 37.351562 38.835938 37.28125 C 38.867188 37.238281 38.898438 37.199219 38.929688 37.15625 C 38.957031 37.125 38.984375 37.09375 39.015625 37.0625 Z M 39.015625 37.0625 "/>
<path style=" stroke:none;fill-rule:nonzero;fill:rgb(6.27451%,36.470589%,58.823532%);fill-opacity:1;" d="M 34.863281 10.253906 C 34.929688 10.300781 34.996094 10.351562 35.058594 10.398438 C 34.980469 10.394531 34.898438 10.390625 34.820312 10.386719 C 34.777344 10.382812 34.730469 10.378906 34.6875 10.375 C 34.570312 10.351562 34.570312 10.351562 34.472656 10.203125 C 34.652344 10.144531 34.695312 10.171875 34.863281 10.253906 Z M 34.863281 10.253906 "/>
<path style=" stroke:none;fill-rule:nonzero;fill:rgb(4.313726%,33.725491%,56.078434%);fill-opacity:1;" d="M 32.46875 29.492188 C 32.453125 29.523438 32.4375 29.554688 32.421875 29.589844 C 32.28125 29.636719 32.191406 29.644531 32.046875 29.640625 C 31.988281 29.640625 31.988281 29.640625 31.925781 29.640625 C 31.882812 29.640625 31.882812 29.640625 31.835938 29.640625 C 31.964844 29.554688 32.035156 29.519531 32.179688 29.484375 C 32.214844 29.472656 32.25 29.464844 32.285156 29.457031 C 32.375 29.445312 32.375 29.445312 32.46875 29.492188 Z M 32.46875 29.492188 "/>
<path style=" stroke:none;fill-rule:nonzero;fill:rgb(4.705882%,32.941177%,55.29412%);fill-opacity:1;" d="M 19.773438 22.949219 C 19.863281 22.972656 19.949219 22.992188 20.039062 23.015625 C 20.085938 23.027344 20.136719 23.042969 20.183594 23.054688 C 20.3125 23.09375 20.3125 23.09375 20.410156 23.195312 C 20.171875 23.210938 20.027344 23.171875 19.824219 23.046875 C 19.808594 23.015625 19.792969 22.984375 19.773438 22.949219 Z M 19.773438 22.949219 "/>
<path style=" stroke:none;fill-rule:nonzero;fill:rgb(3.529412%,29.019609%,50.196081%);fill-opacity:1;" d="M 14.160156 19.53125 C 14.175781 19.53125 14.191406 19.53125 14.210938 19.53125 C 14.21875 19.785156 14.207031 19.972656 14.109375 20.214844 C 14.09375 20.214844 14.078125 20.214844 14.0625 20.214844 C 14.050781 19.960938 14.082031 19.769531 14.160156 19.53125 Z M 14.160156 19.53125 "/>
<path style=" stroke:none;fill-rule:nonzero;fill:rgb(5.098039%,34.117648%,56.078434%);fill-opacity:1;" d="M 15.785156 10.148438 C 15.847656 10.148438 15.847656 10.148438 15.914062 10.152344 C 15.949219 10.152344 15.980469 10.15625 16.015625 10.15625 C 15.863281 10.242188 15.738281 10.269531 15.5625 10.285156 C 15.519531 10.289062 15.476562 10.292969 15.433594 10.296875 C 15.398438 10.296875 15.367188 10.300781 15.332031 10.304688 C 15.484375 10.164062 15.578125 10.140625 15.785156 10.148438 Z M 15.785156 10.148438 "/>
<path style=" stroke:none;fill-rule:nonzero;fill:rgb(4.313726%,32.941177%,55.29412%);fill-opacity:1;" d="M 32.226562 25.828125 C 32.425781 25.851562 32.589844 25.871094 32.765625 25.976562 C 32.765625 26.007812 32.765625 26.039062 32.765625 26.074219 C 32.5625 26.042969 32.40625 25.976562 32.226562 25.878906 C 32.226562 25.863281 32.226562 25.847656 32.226562 25.828125 Z M 32.226562 25.828125 "/>
<path style=" stroke:none;fill-rule:nonzero;fill:rgb(7.450981%,41.960785%,65.490198%);fill-opacity:1;" d="M 24.316406 20.070312 C 24.417969 20.179688 24.460938 20.238281 24.464844 20.390625 C 24.460938 20.433594 24.453125 20.476562 24.449219 20.519531 C 24.4375 20.585938 24.4375 20.585938 24.429688 20.652344 C 24.425781 20.683594 24.417969 20.71875 24.414062 20.75 C 24.300781 20.585938 24.304688 20.523438 24.308594 20.328125 C 24.3125 20.277344 24.3125 20.230469 24.3125 20.179688 C 24.3125 20.144531 24.316406 20.105469 24.316406 20.070312 Z M 24.316406 20.070312 "/>
<path style=" stroke:none;fill-rule:nonzero;fill:rgb(7.058824%,38.039216%,59.607846%);fill-opacity:1;" d="M 14.550781 23.195312 C 14.683594 23.347656 14.777344 23.488281 14.84375 23.679688 C 14.6875 23.628906 14.648438 23.582031 14.558594 23.4375 C 14.53125 23.363281 14.53125 23.363281 14.5 23.289062 C 14.519531 23.257812 14.535156 23.226562 14.550781 23.195312 Z M 14.550781 23.195312 "/>
<path style=" stroke:none;fill-rule:nonzero;fill:rgb(3.921569%,30.19608%,52.156866%);fill-opacity:1;" d="M 24.121094 19.09375 C 24.273438 19.242188 24.3125 19.410156 24.324219 19.621094 C 24.320312 19.65625 24.320312 19.691406 24.316406 19.726562 C 24.132812 19.542969 24.136719 19.335938 24.121094 19.09375 Z M 24.121094 19.09375 "/>
<path style=" stroke:none;fill-rule:nonzero;fill:rgb(3.921569%,31.764707%,54.11765%);fill-opacity:1;" d="M 16.554688 16.84375 C 16.585938 16.863281 16.617188 16.878906 16.648438 16.894531 C 16.589844 16.9375 16.527344 16.980469 16.46875 17.019531 C 16.433594 17.042969 16.398438 17.066406 16.363281 17.089844 C 16.257812 17.140625 16.257812 17.140625 16.148438 17.121094 C 16.121094 17.109375 16.09375 17.101562 16.0625 17.089844 C 16.144531 17.046875 16.222656 17.007812 16.300781 16.964844 C 16.347656 16.941406 16.390625 16.917969 16.4375 16.894531 C 16.492188 16.871094 16.492188 16.871094 16.554688 16.84375 Z M 16.554688 16.84375 "/>
<path style=" stroke:none;fill-rule:nonzero;fill:rgb(4.313726%,30.980393%,51.372552%);fill-opacity:1;" d="M 36.570312 39.160156 C 36.523438 39.257812 36.523438 39.257812 36.414062 39.3125 C 36.277344 39.355469 36.175781 39.363281 36.035156 39.355469 C 36.386719 39.066406 36.386719 39.066406 36.570312 39.160156 Z M 36.570312 39.160156 "/>
<path style=" stroke:none;fill-rule:nonzero;fill:rgb(5.490196%,31.764707%,52.549022%);fill-opacity:1;" d="M 10.304688 36.179688 C 10.453125 36.316406 10.53125 36.429688 10.59375 36.621094 C 10.472656 36.574219 10.410156 36.539062 10.339844 36.429688 C 10.304688 36.328125 10.304688 36.328125 10.304688 36.179688 Z M 10.304688 36.179688 "/>
<path style=" stroke:none;fill-rule:nonzero;fill:rgb(5.490196%,36.078432%,58.823532%);fill-opacity:1;" d="M 20.214844 19.382812 C 20.398438 19.410156 20.5 19.425781 20.65625 19.53125 C 20.65625 19.5625 20.65625 19.59375 20.65625 19.628906 C 20.589844 19.617188 20.527344 19.601562 20.460938 19.589844 C 20.425781 19.582031 20.390625 19.574219 20.355469 19.566406 C 20.324219 19.554688 20.292969 19.542969 20.265625 19.53125 C 20.246094 19.484375 20.230469 19.433594 20.214844 19.382812 Z M 20.214844 19.382812 "/>
<path style=" stroke:none;fill-rule:nonzero;fill:rgb(5.098039%,32.549021%,54.901963%);fill-opacity:1;" d="M 14.5 18.652344 C 14.546875 18.757812 14.558594 18.828125 14.519531 18.9375 C 14.484375 19.023438 14.445312 19.105469 14.40625 19.1875 C 14.371094 19.1875 14.339844 19.1875 14.304688 19.1875 C 14.335938 18.988281 14.40625 18.832031 14.5 18.652344 Z M 14.5 18.652344 "/>
<path style=" stroke:none;fill-rule:nonzero;fill:rgb(4.313726%,29.803923%,50.588238%);fill-opacity:1;" d="M 14.550781 39.550781 C 14.613281 39.558594 14.671875 39.5625 14.738281 39.570312 C 14.789062 39.574219 14.789062 39.574219 14.839844 39.578125 C 14.941406 39.601562 14.941406 39.601562 15.085938 39.695312 C 14.941406 39.695312 14.796875 39.695312 14.648438 39.695312 C 14.648438 39.664062 14.648438 39.632812 14.648438 39.601562 C 14.617188 39.582031 14.585938 39.566406 14.550781 39.550781 Z M 14.550781 39.550781 "/>
<path style=" stroke:none;fill-rule:nonzero;fill:rgb(9.803922%,44.313726%,67.058825%);fill-opacity:1;" d="M 17.773438 32.519531 C 18.113281 32.542969 18.113281 32.542969 18.457031 32.570312 C 18.457031 32.585938 18.457031 32.601562 18.457031 32.617188 C 18.28125 32.632812 18.101562 32.648438 17.921875 32.664062 C 17.921875 32.632812 17.921875 32.601562 17.921875 32.570312 C 17.871094 32.550781 17.824219 32.535156 17.773438 32.519531 Z M 17.773438 32.519531 "/>
<path style=" stroke:none;fill-rule:nonzero;fill:rgb(4.313726%,31.764707%,53.333336%);fill-opacity:1;" d="M 35.890625 30.566406 C 35.890625 30.78125 35.785156 30.847656 35.644531 31.007812 C 35.628906 30.957031 35.613281 30.910156 35.59375 30.859375 C 35.75 30.636719 35.75 30.636719 35.890625 30.566406 Z M 35.890625 30.566406 "/>
<path style=" stroke:none;fill-rule:nonzero;fill:rgb(3.921569%,29.803923%,50.980395%);fill-opacity:1;" d="M 24.5625 29.101562 C 24.640625 29.296875 24.574219 29.445312 24.511719 29.640625 C 24.496094 29.640625 24.480469 29.640625 24.460938 29.640625 C 24.449219 29.265625 24.449219 29.265625 24.5625 29.101562 Z M 24.5625 29.101562 "/>
<path style=" stroke:none;fill-rule:nonzero;fill:rgb(4.313726%,31.37255%,52.941179%);fill-opacity:1;" d="M 35.546875 23 C 35.546875 23.210938 35.441406 23.28125 35.304688 23.4375 C 35.285156 23.390625 35.269531 23.339844 35.253906 23.289062 C 35.410156 23.066406 35.410156 23.066406 35.546875 23 Z M 35.546875 23 "/>
<path style=" stroke:none;fill-rule:nonzero;fill:rgb(4.313726%,32.156864%,54.11765%);fill-opacity:1;" d="M 20.410156 29.734375 C 20.410156 29.769531 20.410156 29.800781 20.410156 29.835938 C 20.253906 29.914062 20.097656 29.886719 19.921875 29.882812 C 20.097656 29.765625 20.203125 29.734375 20.410156 29.734375 Z M 20.410156 29.734375 "/>
<path style=" stroke:none;fill-rule:nonzero;fill:rgb(4.705882%,30.980393%,52.549022%);fill-opacity:1;" d="M 12.546875 38.625 C 12.714844 38.679688 12.824219 38.734375 12.9375 38.867188 C 12.761719 38.84375 12.664062 38.816406 12.546875 38.671875 C 12.546875 38.65625 12.546875 38.640625 12.546875 38.625 Z M 12.546875 38.625 "/>
<path style=" stroke:none;fill-rule:nonzero;fill:rgb(7.058824%,39.215687%,61.960787%);fill-opacity:1;" d="M 34.277344 24.023438 C 34.308594 24.023438 34.34375 24.023438 34.375 24.023438 C 34.375 24.054688 34.375 24.085938 34.375 24.121094 C 34.488281 24.136719 34.601562 24.152344 34.71875 24.171875 C 34.699219 24.203125 34.683594 24.234375 34.667969 24.265625 C 34.5 24.226562 34.5 24.226562 34.328125 24.171875 C 34.308594 24.121094 34.292969 24.074219 34.277344 24.023438 Z M 34.277344 24.023438 "/>
<path style=" stroke:none;fill-rule:nonzero;fill:rgb(11.372549%,43.529412%,65.490198%);fill-opacity:1;" d="M 9.375 16.359375 C 9.390625 16.359375 9.40625 16.359375 9.421875 16.359375 C 9.4375 16.425781 9.445312 16.496094 9.457031 16.566406 C 9.464844 16.625 9.464844 16.625 9.476562 16.6875 C 9.472656 16.796875 9.472656 16.796875 9.328125 16.945312 C 9.34375 16.75 9.359375 16.554688 9.375 16.359375 Z M 9.375 16.359375 "/>
<path style=" stroke:none;fill-rule:nonzero;fill:rgb(10.196079%,42.352942%,63.921571%);fill-opacity:1;" d="M 24.21875 40.085938 C 24.414062 40.136719 24.414062 40.136719 24.414062 40.136719 Z M 24.21875 40.085938 "/>
<path style=" stroke:none;fill-rule:nonzero;fill:rgb(11.372549%,42.352942%,63.921571%);fill-opacity:1;" d="M 17.234375 40.085938 C 17.285156 40.105469 17.332031 40.121094 17.382812 40.136719 C 17.335938 40.152344 17.285156 40.167969 17.234375 40.1875 C 17.234375 40.152344 17.234375 40.121094 17.234375 40.085938 Z M 17.234375 40.085938 "/>
<path style=" stroke:none;fill-rule:nonzero;fill:rgb(12.156863%,43.529412%,63.529414%);fill-opacity:1;" d="M 9.179688 32.617188 C 9.226562 32.8125 9.226562 32.8125 9.226562 32.8125 Z M 9.179688 32.617188 "/>
<path style=" stroke:none;fill-rule:nonzero;fill:rgb(10.980392%,43.137255%,63.921571%);fill-opacity:1;" d="M 20.3125 40.085938 C 20.34375 40.085938 20.375 40.085938 20.410156 40.085938 C 20.394531 40.121094 20.378906 40.152344 20.359375 40.1875 C 20.34375 40.152344 20.328125 40.121094 20.3125 40.085938 Z M 20.3125 40.085938 "/>
<path style=" stroke:none;fill-rule:nonzero;fill:rgb(10.588235%,43.137255%,64.705884%);fill-opacity:1;" d="M 19.09375 40.085938 C 19.238281 40.136719 19.238281 40.136719 19.238281 40.136719 Z M 19.09375 40.085938 "/>
<path style=" stroke:none;fill-rule:nonzero;fill:rgb(10.588235%,43.137255%,65.098041%);fill-opacity:1;" d="M 34.960938 39.796875 C 35.109375 39.84375 35.109375 39.84375 35.109375 39.84375 Z M 34.960938 39.796875 "/>
<path style=" stroke:none;fill-rule:nonzero;fill:rgb(11.372549%,42.352942%,63.529414%);fill-opacity:1;" d="M 14.5 39.695312 C 14.648438 39.746094 14.648438 39.746094 14.648438 39.746094 Z M 14.5 39.695312 "/>
<path style=" stroke:none;fill-rule:nonzero;fill:rgb(9.803922%,46.666667%,69.803923%);fill-opacity:1;" d="M 20.703125 32.421875 C 20.851562 32.46875 20.851562 32.46875 20.851562 32.46875 Z M 20.703125 32.421875 "/>
<path style=" stroke:none;fill-rule:nonzero;fill:rgb(9.019608%,45.09804%,68.627453%);fill-opacity:1;" d="M 18.3125 32.421875 C 18.328125 32.453125 18.34375 32.484375 18.359375 32.519531 C 18.328125 32.503906 18.296875 32.488281 18.261719 32.46875 C 18.277344 32.453125 18.292969 32.4375 18.3125 32.421875 Z M 18.3125 32.421875 "/>
<path style=" stroke:none;fill-rule:nonzero;fill:rgb(9.411765%,45.09804%,68.235296%);fill-opacity:1;" d="M 17.1875 21.582031 C 17.21875 21.613281 17.25 21.648438 17.285156 21.679688 C 17.253906 21.679688 17.21875 21.679688 17.1875 21.679688 C 17.1875 21.648438 17.1875 21.617188 17.1875 21.582031 Z M 17.1875 21.582031 "/>
<path style=" stroke:none;fill-rule:nonzero;fill:rgb(10.196079%,46.27451%,69.803923%);fill-opacity:1;" d="M 23.484375 18.210938 C 23.519531 18.246094 23.550781 18.277344 23.585938 18.3125 C 23.550781 18.3125 23.519531 18.3125 23.484375 18.3125 C 23.484375 18.277344 23.484375 18.246094 23.484375 18.210938 Z M 23.484375 18.210938 "/>
<path style=" stroke:none;fill-rule:nonzero;fill:rgb(8.627451%,45.490196%,69.01961%);fill-opacity:1;" d="M 20.703125 16.648438 C 20.851562 16.699219 20.851562 16.699219 20.851562 16.699219 Z M 20.703125 16.648438 "/>
<path style=" stroke:none;fill-rule:nonzero;fill:rgb(11.372549%,43.529412%,64.705884%);fill-opacity:1;" d="M 32.03125 40.085938 C 32.128906 40.136719 32.128906 40.136719 32.128906 40.136719 Z M 32.03125 40.085938 "/>
<path style=" stroke:none;fill-rule:nonzero;fill:rgb(10.588235%,43.137255%,64.313728%);fill-opacity:1;" d="M 27.734375 40.085938 C 27.832031 40.136719 27.832031 40.136719 27.832031 40.136719 Z M 27.734375 40.085938 "/>
<path style=" stroke:none;fill-rule:nonzero;fill:rgb(10.980392%,42.745098%,63.921571%);fill-opacity:1;" d="M 18.015625 40.085938 C 18.117188 40.136719 18.117188 40.136719 18.117188 40.136719 Z M 18.015625 40.085938 "/>
<path style=" stroke:none;fill-rule:nonzero;fill:rgb(10.980392%,43.137255%,64.313728%);fill-opacity:1;" d="M 17.578125 40.085938 C 17.675781 40.136719 17.675781 40.136719 17.675781 40.136719 Z M 17.578125 40.085938 "/>
<path style=" stroke:none;fill-rule:nonzero;fill:rgb(11.372549%,41.960785%,62.352943%);fill-opacity:1;" d="M 16.453125 40.039062 C 16.554688 40.085938 16.554688 40.085938 16.554688 40.085938 Z M 16.453125 40.039062 "/>
<path style=" stroke:none;fill-rule:nonzero;fill:rgb(10.588235%,41.568628%,62.352943%);fill-opacity:1;" d="M 12.5 38.769531 C 12.597656 38.820312 12.597656 38.820312 12.597656 38.820312 Z M 12.5 38.769531 "/>
<path style=" stroke:none;fill-rule:nonzero;fill:rgb(10.980392%,41.960785%,62.7451%);fill-opacity:1;" d="M 10.351562 36.570312 C 10.449219 36.621094 10.449219 36.621094 10.449219 36.621094 Z M 10.351562 36.570312 "/>
<path style=" stroke:none;fill-rule:nonzero;fill:rgb(10.588235%,45.490196%,68.627453%);fill-opacity:1;" d="M 19.726562 30.03125 C 19.824219 30.078125 19.824219 30.078125 19.824219 30.078125 Z M 19.726562 30.03125 "/>
<path style=" stroke:none;fill-rule:nonzero;fill:rgb(9.803922%,47.058824%,70.980394%);fill-opacity:1;" d="M 18.359375 29.980469 C 18.457031 30.03125 18.457031 30.03125 18.457031 30.03125 Z M 18.359375 29.980469 "/>
<path style=" stroke:none;fill-rule:nonzero;fill:rgb(9.019608%,45.882353%,70.588237%);fill-opacity:1;" d="M 21.484375 23.78125 C 21.582031 23.828125 21.582031 23.828125 21.582031 23.828125 Z M 21.484375 23.78125 "/>
<path style=" stroke:none;fill-rule:nonzero;fill:rgb(9.411765%,45.882353%,69.803923%);fill-opacity:1;" d="M 20.851562 16.699219 C 20.945312 16.75 20.945312 16.75 20.945312 16.75 Z M 20.851562 16.699219 "/>
<path style=" stroke:none;fill-rule:nonzero;fill:rgb(9.803922%,42.352942%,63.529414%);fill-opacity:1;" d="M 11.71875 11.71875 C 11.816406 11.765625 11.816406 11.765625 11.816406 11.765625 Z M 11.71875 11.71875 "/>
<path style=" stroke:none;fill-rule:nonzero;fill:rgb(9.803922%,43.529412%,65.490198%);fill-opacity:1;" d="M 36.867188 10.9375 C 36.960938 10.984375 36.960938 10.984375 36.960938 10.984375 Z M 36.867188 10.9375 "/>
</g>
</svg>
